<svg version="1.1" xmlns="http://www.w3.org/2000/svg" xmlns:xlink="http://www.w3.org/1999/xlink" width="121.83447" height="172.29432" viewBox="0,0,121.83447,172.29432"><defs><linearGradient x1="191.90483" y1="180.36392" x2="174.09663" y2="155.87742" gradientUnits="userSpaceOnUse" id="color-1"><stop offset="0" stop-color="#ac7f2e"/><stop offset="1" stop-color="#d29839"/></linearGradient><linearGradient x1="259.02373" y1="180.30992" x2="275.25723" y2="154.67122" gradientUnits="userSpaceOnUse" id="color-2"><stop offset="0" stop-color="#ac7f2e"/><stop offset="1" stop-color="#d29839"/></linearGradient><linearGradient x1="204.92483" y1="146.95672" x2="204.92483" y2="204.46182" gradientUnits="userSpaceOnUse" id="color-3"><stop offset="0" stop-color="#9f7a29"/><stop offset="1" stop-color="#d29839"/></linearGradient><linearGradient x1="213.23003" y1="158.41802" x2="213.23003" y2="196.27132" gradientUnits="userSpaceOnUse" id="color-4"><stop offset="0" stop-color="#f3b271"/><stop offset="1" stop-color="#ffcb99"/></linearGradient><linearGradient x1="171.51793" y1="96.45992" x2="198.01793" y2="96.45992" gradientUnits="userSpaceOnUse" id="color-5"><stop offset="0" stop-color="#cbbd7c"/><stop offset="1" stop-color="#b4812d"/></linearGradient><linearGradient x1="253.26793" y1="96.70992" x2="279.76793" y2="96.70992" gradientUnits="userSpaceOnUse" id="color-6"><stop offset="0" stop-color="#b4812d"/><stop offset="1" stop-color="#cbbd7c"/></linearGradient><linearGradient x1="204.26733" y1="127.15902" x2="204.26733" y2="149.32702" gradientUnits="userSpaceOnUse" id="color-7"><stop offset="0" stop-color="#ffcb6b"/><stop offset="1" stop-color="#ffcb99"/></linearGradient><linearGradient x1="190.76793" y1="134.95992" x2="203.26793" y2="134.95992" gradientUnits="userSpaceOnUse" id="color-8"><stop offset="0" stop-color="#fe9e6c"/><stop offset="1" stop-color="#ffcb99"/></linearGradient><linearGradient x1="248.51793" y1="133.70992" x2="261.01793" y2="133.70992" gradientUnits="userSpaceOnUse" id="color-9"><stop offset="0" stop-color="#fe9e6c"/><stop offset="1" stop-color="#ffcb99"/></linearGradient></defs><g transform="translate(-157.93346,-63.70644)"><g data-paper-data="{&quot;isPaintingLayer&quot;:true}" fill-rule="nonzero" stroke-linejoin="miter" stroke-miterlimit="10" stroke-dasharray="" stroke-dashoffset="0" style="mix-blend-mode: normal"><g stroke="none" stroke-width="1" stroke-linecap="round"><path d="M245.61793,200.85992c0.95,2.017 1.481,4.239 1.95,6.425c0.388,1.817 0.759,3.538 0.7,5.325c-0.184,5.611 0.68,11.579 -1.25,16.85c-0.665,1.618 -3.556,0.505 -5.25,0.4c-0.774,-0.048 -2.003,0.249 -2.15,-0.9c-0.818,-4.541 -0.056,-9.246 -0.35,-13.85c-0.127,-1.983 -0.222,-3.95 -0.85,-5.75c-0.709,-2.041 -1.685,-4.01 -3.1,-5.6c-1.453,-1.634 -6.349,-2.528 -5.15,-3.8c2.151,-2.478 7.683,-3.958 11.85,-3.7c1.941,0.12 2.673,2.888 3.6,4.6z" fill="#b4852d"/><path d="M249.56793,228.20992c1.021,0.704 2.371,1.484 2.5,2.7c0.15,1.455 -0.536,3.269 -1.8,4c-1.777,1.028 -4.058,0.655 -6.1,0.65c-2.144,0.005 -4.573,0.443 -6.4,-0.65c-1.036,-0.62 -0.839,-2.392 -0.6,-3.575c0.297,-1.466 0.798,-2.958 2.088,-3.976c1.29,-1.019 3.283,-1.834 5.037,-1.649c1.962,0.208 3.672,1.405 5.275,2.5z" fill="#fdcb96"/><path d="M247.61793,225.90992c0.719,0.195 1.276,0.952 1.6,1.65c0.252,0.547 0.588,1.339 0.15,1.7c-0.846,0.694 -2.027,0.848 -3.1,0.9c-2.389,0.113 -4.695,-0.058 -7,-0.4c-0.597,-0.092 -1.387,-0.217 -1.4,-0.7c-0.069,-1.042 0.396,-2.245 1.212,-2.767c1.1,-0.706 2.569,-0.662 3.888,-0.733c1.518,-0.081 3.155,-0.164 4.65,0.35z" fill="#cc9832"/></g><path d="M175.51793,166.30992c3.586,1.493 6.556,4.357 9.25,7.15c1.474,1.647 2.46,3.775 3,5.9c0.907,3.569 0.744,7.34 1.15,11c0.371,3.339 -0.039,6.753 1.1,9.85c0.657,1.782 2.077,3.38 3.75,3.9c2.814,0.952 5.938,0.49 8.75,0.2c3.375,-0.345 6.762,-0.775 10,-1.95c2.33,-0.845 4.045,-3.523 6.4,-3.8c3.629,-0.426 12.4,0.087 10.85,1.65c-2.728,2.752 -13.156,6.019 -20.121,7.774c-4.587,1.154 -9.397,1.476 -14.029,1.076c-2.881,-0.324 -6.068,-1.174 -8,-3.2c-2.079,-2.18 -2.583,-5.532 -3.1,-8.5c-0.774,-4.443 -0.021,-8.925 -0.75,-13.3c-0.44,-2.638 -1.067,-5.61 -2.85,-7.75c-2.281,-2.692 -5.451,-4.68 -8.8,-6.1c-4.287,-1.816 -9.493,-0.929 -13.6,-3.25c-1.16,-0.656 -0.454,-3.838 0.9,-3.9c5.385,-0.246 11.051,1.148 16.1,3.25z" fill="#a97a2a" stroke="none" stroke-width="1" stroke-linecap="round"/><g stroke="none" stroke-width="1"><path d="M177.61733,159.00422c-1.7865,-0.396 -2.9888,-2.3161 -3.8966,-3.6578c-0.6433,-0.9491 -0.9959,-2.2024 -0.8341,-3.3266c0.1611,-1.1249 0.7494,-2.176 1.7256,-2.8859c0.9761,-0.7099 2.1573,-0.9458 3.2772,-0.7525c1.1193,0.1925 2.2077,0.907 2.9078,1.8186c0.9945,1.2909 2.4467,3.0157 2.2791,4.834c-0.2425,1.037 -2.3111,0.6595 -3.1706,1.3785c-0.8781,0.7376 -1.2308,2.6856 -2.2884,2.5917z" fill="#fccd97" stroke-linecap="round"/><path d="M187.95383,168.14752c-4.8633,-2.3006 -9.9042,-5.5849 -12.2965,-10.532c-1.0369,-2.1467 2.466,-5.5574 4.779,-5.3303c3.2153,0.2285 4.5956,4.4897 7.058,6.3045c2.2797,1.6793 4.8123,3.4851 7.3889,4.2091c2.8456,0.7929 5.8693,0.7714 8.8409,0.6801c2.243,-0.1684 5.0821,-2.5757 6.6721,-1.452c1.3063,0.9307 0.3569,3.9285 -0.8271,5.2384c-1.6712,1.8472 -4.1969,3.1128 -6.5986,3.2533c-5.0938,0.1657 -10.4979,-0.2194 -15.0167,-2.3711z" fill="url(#color-1)" stroke-linecap="butt"/><path d="M177.25063,158.32372c-0.9613,0.1402 -1.7592,-0.0523 -2.165,-0.6104c-0.4059,-0.558 -0.3432,-1.3764 0.0864,-2.2477c0.4291,-0.8722 1.2252,-1.7974 2.2846,-2.5679c1.0595,-0.7705 2.185,-1.2428 3.1469,-1.3823c0.9614,-0.1402 1.7592,0.0523 2.1651,0.6103c0.4058,0.5581 0.3432,1.3764 -0.0865,2.2478c-0.4291,0.8722 -1.2252,1.7974 -2.2846,2.5679c-1.0595,0.7705 -2.1849,1.2428 -3.1469,1.3823z" fill="#cd9934" stroke-linecap="round"/></g><g stroke="none" stroke-width="1"><path d="M266.43493,154.75542c-0.2906,-1.8067 1.0511,-3.6322 1.9636,-4.9706c0.6452,-0.9479 1.6802,-1.7377 2.7848,-2.0018c1.1052,-0.2649 2.2991,-0.1055 3.3189,0.5402c1.0197,0.6457 1.6744,1.6567 1.9076,2.769c0.2337,1.1114 -0.0292,2.3865 -0.6185,3.3734c-0.8334,1.4004 -1.9014,3.3861 -3.6534,3.9007c-1.0533,0.1568 -1.465,-1.9053 -2.4503,-2.4391c-1.0093,-0.5444 -2.9502,-0.1541 -3.2527,-1.1718z" fill="#fccd97" stroke-linecap="round"/><path d="M249.27313,170.56202c-3.5836,-0.1538 -7.4082,-0.8971 -10.265,-2.9485c-1.166,-0.9774 -0.9185,-3.9217 0.3656,-4.5029c2.0723,-0.9308 4.5025,0.9961 6.7516,1.0199c2.9714,-0.0999 5.9902,-0.2729 8.7789,-1.2471c2.5248,-0.8882 4.9359,-2.8532 7.103,-4.6756c2.3406,-1.9694 3.444,-6.3105 6.638,-6.7453c2.2935,-0.3753 5.9666,2.7646 5.1118,5.012c-1.9941,5.2318 -6.9393,9.0661 -11.7767,11.7768c-3.869,2.1699 -8.418,2.4866 -12.7072,2.3107z" fill="url(#color-2)" stroke-linecap="butt"/><path d="M266.81653,154.01812c-0.4849,-0.842 -0.6,-1.6546 -0.2309,-2.2376c0.3691,-0.583 1.153,-0.8264 2.1214,-0.7483c0.9689,0.0774 2.1224,0.4763 3.2292,1.1771c1.1068,0.7008 1.9607,1.5729 2.445,2.4157c0.4848,0.8419 0.5999,1.6545 0.2308,2.2375c-0.3691,0.583 -1.1529,0.8264 -2.1213,0.7483c-0.9689,-0.0773 -2.1224,-0.4763 -3.2292,-1.1771c-1.1068,-0.7008 -1.9608,-1.5728 -2.445,-2.4156z" fill="#cd9934" stroke-linecap="round"/></g><g stroke="none" stroke-width="1" stroke-linecap="round"><path d="M210.01793,196.35992c4.167,-0.258 9.699,1.222 11.85,3.7c1.199,1.272 -3.697,2.166 -5.15,3.8c-1.415,1.59 -2.391,3.559 -3.1,5.6c-0.628,1.8 -0.723,3.767 -0.85,5.75c-0.294,4.604 0.468,9.309 -0.35,13.85c-0.147,1.149 -1.376,0.852 -2.15,0.9c-1.694,0.105 -4.585,1.218 -5.25,-0.4c-1.93,-5.271 -1.066,-11.239 -1.25,-16.85c-0.059,-1.787 0.312,-3.508 0.7,-5.325c0.469,-2.186 1,-4.408 1.95,-6.425c0.927,-1.712 1.659,-4.48 3.6,-4.6z" fill="#b4852d"/><path d="M208.34293,226.05992c1.754,-0.185 3.747,0.63 5.037,1.649c1.29,1.018 1.791,2.51 2.088,3.976c0.239,1.183 0.436,2.955 -0.6,3.575c-1.827,1.093 -4.256,0.655 -6.4,0.65c-2.042,0.005 -4.323,0.378 -6.1,-0.65c-1.264,-0.731 -1.95,-2.545 -1.8,-4c0.129,-1.216 1.479,-1.996 2.5,-2.7c1.603,-1.095 3.313,-2.292 5.275,-2.5z" fill="#fdcb96"/><path d="M209.71793,225.70992c1.319,0.071 2.788,0.027 3.888,0.733c0.816,0.522 1.281,1.725 1.212,2.767c-0.013,0.483 -0.803,0.608 -1.4,0.7c-2.305,0.342 -4.611,0.513 -7,0.4c-1.073,-0.052 -2.254,-0.206 -3.1,-0.9c-0.438,-0.361 -0.102,-1.153 0.15,-1.7c0.324,-0.698 0.881,-1.455 1.6,-1.65c1.495,-0.514 3.132,-0.431 4.65,-0.35z" fill="#cc9832"/></g><g stroke="none" stroke-linecap="round"><path d="M243.19913,147.77992c2.9685,0.4056 1.8648,0.5013 2.0112,4.1777c0.584,14.7039 1.7296,29.6432 0,44.4353c-0.428,3.5381 -3.1633,5.5251 -6.0337,6.8362c-3.6346,1.6604 -7.9612,1.1393 -12.0673,1.1393c-4.6371,0 -9.7536,0.5773 -14.0785,-1.1393c-3.1408,-1.264 -6.3024,-3.5199 -6.8382,-7.216c-2.1415,-14.786 -1.0667,-29.8028 -0.4022,-44.8151c0.1657,-3.7538 -0.0708,-3.1811 2.8157,-3.4181c11.5492,-0.951 23.2239,-1.2351 34.593,0z" fill="url(#color-3)" stroke-width="1.56471"/><path d="M237.01793,158.95992c1.845,0.267 1.159,0.33 1.25,2.75c0.363,9.679 1.075,19.513 0,29.25c-0.266,2.329 -1.966,3.637 -3.75,4.5c-2.259,1.093 -4.948,0.75 -7.5,0.75c-2.882,0 -6.062,0.38 -8.75,-0.75c-1.952,-0.832 -3.917,-2.317 -4.25,-4.75c-1.331,-9.733 -0.663,-19.618 -0.25,-29.5c0.103,-2.471 -0.044,-2.094 1.75,-2.25c7.178,-0.626 14.434,-0.813 21.5,0z" fill="url(#color-4)" stroke-width="1"/><path d="M226.01793,189.45992c0.552,0 1.052,0.168 1.414,0.44c0.362,0.271 0.586,0.646 0.586,1.06c0,0.414 -0.224,0.789 -0.586,1.06c-0.362,0.272 -0.862,0.44 -1.414,0.44c-0.552,0 -1.052,-0.168 -1.414,-0.44c-0.362,-0.271 -0.586,-0.646 -0.586,-1.06c0,-0.414 0.224,-0.789 0.586,-1.06c0.362,-0.272 0.862,-0.44 1.414,-0.44z" fill="#fccded" stroke-width="1"/></g><g fill="#cd9934" stroke="none" stroke-width="1" stroke-linecap="butt"><path d="M206.14293,152.70992c1.966,0 3.747,0.896 5.037,2.345c1.29,1.448 2.088,3.448 2.088,5.655c0,2.207 -0.798,4.207 -2.088,5.655c-1.29,1.449 -3.071,2.345 -5.037,2.345c-1.966,0 -3.747,-0.896 -5.037,-2.345c-1.29,-1.448 -2.088,-3.448 -2.088,-5.655c0,-2.207 0.798,-4.207 2.088,-5.655c1.29,-1.449 3.071,-2.345 5.037,-2.345z"/><path d="M218.74293,152.45992c1.966,0 3.747,0.896 5.037,2.345c1.29,1.448 2.088,3.448 2.088,5.655c0,2.207 -0.798,4.207 -2.088,5.655c-1.29,1.449 -3.071,2.345 -5.037,2.345c-1.966,0 -3.747,-0.896 -5.037,-2.345c-1.29,-1.448 -2.088,-3.448 -2.088,-5.655c0,-2.207 0.798,-4.207 2.088,-5.655c1.29,-1.449 3.071,-2.345 5.037,-2.345z"/><path d="M232.64293,152.45992c1.966,0 3.747,0.896 5.037,2.345c1.29,1.448 2.088,3.448 2.088,5.655c0,2.207 -0.798,4.207 -2.088,5.655c-1.29,1.449 -3.071,2.345 -5.037,2.345c-1.966,0 -3.747,-0.896 -5.037,-2.345c-1.29,-1.448 -2.088,-3.448 -2.088,-5.655c0,-2.207 0.798,-4.207 2.088,-5.655c1.29,-1.449 3.071,-2.345 5.037,-2.345z"/><path d="M246.39293,152.20992c1.966,0 3.747,0.896 5.037,2.345c1.29,1.448 2.088,3.448 2.088,5.655c0,2.207 -0.798,4.207 -2.088,5.655c-1.29,1.449 -3.071,2.345 -5.037,2.345c-1.966,0 -3.747,-0.896 -5.037,-2.345c-1.29,-1.448 -2.088,-3.448 -2.088,-5.655c0,-2.207 0.798,-4.207 2.088,-5.655c1.29,-1.449 3.071,-2.345 5.037,-2.345z"/><path d="M225.26793,150.45992c6.139,0 11.701,0.686 15.729,1.795c4.028,1.109 6.521,2.64 6.521,4.33c0,1.69 -2.493,3.221 -6.521,4.33c-4.028,1.109 -9.59,1.795 -15.729,1.795c-6.139,0 -11.701,-0.686 -15.729,-1.795c-4.028,-1.109 -6.521,-2.64 -6.521,-4.33c0,-1.69 2.493,-3.221 6.521,-4.33c4.028,-1.109 9.59,-1.795 15.729,-1.795z"/></g><g stroke="none" stroke-linecap="butt"><path d="M184.76793,96.45992c3.656,0 6.968,1.401 9.367,3.664c2.398,2.262 3.883,5.387 3.883,8.836c0,3.449 -1.485,6.574 -3.883,8.836c-2.399,2.263 -5.711,3.664 -9.367,3.664c-3.656,0 -6.968,-1.401 -9.367,-3.664c-2.398,-2.262 -3.883,-5.387 -3.883,-8.836c0,-3.449 1.485,-6.574 3.883,-8.836c2.399,-2.263 5.711,-3.664 9.367,-3.664z" fill="url(#color-5)" stroke-width="1"/><path d="M183.89293,101.19742c2.242,0 4.273,0.882 5.744,2.3079c1.471,1.4259 2.381,3.3946 2.381,5.5671c0,2.1724 -0.91,4.1412 -2.381,5.5671c-1.471,1.4259 -3.502,2.3079 -5.744,2.3079c-2.242,0 -4.273,-0.882 -5.744,-2.3079c-1.471,-1.4259 -2.381,-3.3947 -2.381,-5.5671c0,-2.1725 0.91,-4.1412 2.381,-5.5671c1.471,-1.4259 3.502,-2.3079 5.744,-2.3079z" fill="#fecc99" stroke-width="1.0253"/></g><g stroke="none" stroke-linecap="butt"><path d="M266.51793,96.70992c3.656,0 6.968,1.401 9.367,3.664c2.398,2.262 3.883,5.387 3.883,8.836c0,3.449 -1.485,6.574 -3.883,8.836c-2.399,2.263 -5.711,3.664 -9.367,3.664c-3.656,0 -6.968,-1.401 -9.367,-3.664c-2.398,-2.262 -3.883,-5.387 -3.883,-8.836c0,-3.449 1.485,-6.574 3.883,-8.836c2.399,-2.263 5.711,-3.664 9.367,-3.664z" fill="url(#color-6)" stroke-width="1"/><path d="M267.89293,101.44742c2.242,0 4.273,0.882 5.744,2.3079c1.471,1.4259 2.381,3.3946 2.381,5.5671c0,2.1724 -0.91,4.1412 -2.381,5.5671c-1.471,1.4259 -3.502,2.3079 -5.744,2.3079c-2.242,0 -4.273,-0.882 -5.744,-2.3079c-1.471,-1.4259 -2.381,-3.3947 -2.381,-5.5671c0,-2.1725 0.91,-4.1412 2.381,-5.5671c1.471,-1.4259 3.502,-2.3079 5.744,-2.3079z" fill="#fecc99" stroke-width="1.0253"/></g><g stroke="none"><g><g><path d="M226.08973,71.31912c11.191,0 21.3319,4.4822 28.675,11.7228c7.3431,7.2417 11.8884,17.2417 11.8884,28.2772c0,11.0355 -4.5453,21.0355 -11.8884,28.2771c-7.3431,7.2406 -17.484,11.7229 -28.675,11.7229c-11.1909,0 -21.3318,-4.4823 -28.6749,-11.7229c-7.3431,-7.2416 -11.8884,-17.2416 -11.8884,-28.2771c0,-11.0355 4.5453,-21.0355 11.8884,-28.2772c7.3431,-7.2406 17.484,-11.7228 28.6749,-11.7228z" fill="#cd9933" stroke-width="1.12676" stroke-linecap="butt"/><path d="M232.01793,86.45992c5.596,-0.34 11.535,0.977 16,4c5.06,3.503 9.031,8.849 11,14.5c1.763,5.024 0.269,10.585 0,16c-0.067,1.354 -0.928,-0.568 -0.5,0c1.71,2.271 4.302,4.118 5.75,6.75c0.96,2.101 1.644,4.665 1.25,7c-0.655,3.876 -1.26,8.452 -4.25,11c-5.781,4.904 -13.327,8.437 -21,10c-9.209,1.933 -18.933,1.655 -28.5,0.25c-7.101,-1.044 -14.25,-3.423 -20.25,-7.5c-3.323,-2.344 -5.187,-6.635 -6.25,-10.75c-0.837,-3.249 0.031,-6.694 1.25,-10c0.925,-2.499 3.267,-4.173 5,-6.25c0.433,-0.519 0.865,-0.342 1,-1.5c0.54,-4.631 -0.796,-9.519 0.5,-14c1.439,-4.959 3.764,-10.518 8,-14c4.149,-3.298 9.873,-4.899 15.5,-5c3.283,-0.055 5.818,3.339 8.5,5c0.671,0.415 -1.04,0.465 -0.5,0c2.153,-1.857 4.404,-5.311 7.5,-5.5z" fill="#ffcb99" stroke-width="1" stroke-linecap="round"/></g><path d="M226.27183,127.27682c4.7798,0.0068 9.8606,-0.7371 13.9925,1.4307c3.5287,1.8599 7.03,5.439 7.2108,9.2711c0.0927,3.911 -3.1453,7.7236 -6.5378,9.5675c-4.3586,2.3693 -9.8811,1.7146 -14.923,1.6493c-4.7935,0.0653 -10.0403,0.562 -14.408,-1.6493c-3.46,-1.7501 -7.1021,-5.154 -7.339,-9.0525c-0.0069,-3.8148 3.3513,-7.7041 6.753,-9.5c4.5234,-2.3887 10.1433,-1.7226 15.2515,-1.7168z" fill="url(#color-7)" stroke-width="1.14458" stroke-linecap="round"/><path d="M197.01793,134.95992c1.724,0 3.287,0.644 4.418,1.685c1.132,1.041 1.832,2.479 1.832,4.065c0,1.586 -0.7,3.024 -1.832,4.065c-1.131,1.041 -2.694,1.685 -4.418,1.685c-1.724,0 -3.287,-0.644 -4.418,-1.685c-1.132,-1.041 -1.832,-2.479 -1.832,-4.065c0,-1.586 0.7,-3.024 1.832,-4.065c1.131,-1.041 2.694,-1.685 4.418,-1.685z" fill="url(#color-8)" stroke-width="1" stroke-linecap="round"/><path d="M254.76793,133.70992c1.724,0 3.287,0.644 4.418,1.685c1.132,1.041 1.832,2.479 1.832,4.065c0,1.586 -0.7,3.024 -1.832,4.065c-1.131,1.041 -2.694,1.685 -4.418,1.685c-1.724,0 -3.287,-0.644 -4.418,-1.685c-1.132,-1.041 -1.832,-2.479 -1.832,-4.065c0,-1.586 0.7,-3.024 1.832,-4.065c1.131,-1.041 2.694,-1.685 4.418,-1.685z" fill="url(#color-9)" stroke-width="1" stroke-linecap="butt"/></g><path d="M220.26793,63.70992c0.685,-0.011 0.597,3.136 1.5,4.5c0.891,1.257 2.578,1.756 3.75,2.75c0.944,0.799 2.395,1.274 2.75,2.5c0.32,0.743 -0.488,1.554 -1.136,2.181c-0.74,0.71 -1.67,1.319 -2.739,1.319c-1.069,0 -2.24,-0.438 -2.739,-1.319c-1.336,-2.519 -2.379,-4.991 -2.636,-7.681c-0.145,-1.601 0.69,-4.365 1.25,-4.25z" fill="#cd9933" stroke-width="1" stroke-linecap="round"/></g><path d="M205.16793,106.95992c2.069,0 3.944,1.401 5.302,3.664c1.358,2.262 2.198,5.387 2.198,8.836c0,3.449 -0.84,6.574 -2.198,8.836c-1.358,2.263 -3.233,3.664 -5.302,3.664c-2.069,0 -3.944,-1.401 -5.302,-3.664c-1.358,-2.262 -2.198,-5.387 -2.198,-8.836c0,-3.449 0.84,-6.574 2.198,-8.836c1.358,-2.263 3.233,-3.664 5.302,-3.664z" fill="#ffffff" stroke="none" stroke-width="1" stroke-linecap="butt"/><path d="M205.44293,117.33732c1.4829,0 2.8269,0.784 3.8,2.0519c0.973,1.2669 1.575,3.0166 1.575,4.9481c0,1.9314 -0.602,3.6812 -1.575,4.948c-0.9731,1.268 -2.3171,2.052 -3.8,2.052c-1.4829,0 -2.8269,-0.784 -3.8,-2.052c-0.973,-1.2668 -1.575,-3.0166 -1.575,-4.948c0,-1.9315 0.602,-3.6812 1.575,-4.9481c0.9731,-1.2679 2.3171,-2.0519 3.8,-2.0519z" fill="#9a6732" stroke="none" stroke-width="1.14582" stroke-linecap="butt"/><path d="M245.91793,107.45992c2.069,0 3.944,1.401 5.302,3.664c1.358,2.262 2.198,5.387 2.198,8.836c0,3.449 -0.84,6.574 -2.198,8.836c-1.358,2.263 -3.233,3.664 -5.302,3.664c-2.069,0 -3.944,-1.401 -5.302,-3.664c-1.358,-2.262 -2.198,-5.387 -2.198,-8.836c0,-3.449 0.84,-6.574 2.198,-8.836c1.358,-2.263 3.233,-3.664 5.302,-3.664z" fill="#ffffff" stroke="none" stroke-width="1" stroke-linecap="butt"/><path d="M245.74293,117.83732c1.4829,0 2.8269,0.784 3.8,2.0519c0.973,1.2669 1.575,3.0166 1.575,4.9481c0,1.9314 -0.602,3.6812 -1.575,4.948c-0.9731,1.268 -2.3171,2.052 -3.8,2.052c-1.4829,0 -2.8269,-0.784 -3.8,-2.052c-0.973,-1.2668 -1.575,-3.0166 -1.575,-4.948c0,-1.9315 0.602,-3.6812 1.575,-4.9481c0.9731,-1.2679 2.3171,-2.0519 3.8,-2.0519z" fill="#9a6732" stroke="none" stroke-width="1.14582" stroke-linecap="butt"/><path d="M225.91793,126.20992c1.931,0 3.681,0.448 4.948,1.172c1.268,0.724 2.052,1.724 2.052,2.828c0,1.104 -0.784,2.104 -2.052,2.828c-1.267,0.724 -3.017,1.172 -4.948,1.172c-1.931,0 -3.681,-0.448 -4.948,-1.172c-1.268,-0.724 -2.052,-1.724 -2.052,-2.828c0,-1.104 0.784,-2.104 2.052,-2.828c1.267,-0.724 3.017,-1.172 4.948,-1.172z" fill="#343432" stroke="none" stroke-width="1" stroke-linecap="butt"/><path d="M225.66793,130.20062v7.1945" fill="none" stroke="#343432" stroke-width="2.57151" stroke-linecap="round"/><path d="M225.67613,140.05132c2.4445,-0.0078 4.9166,0.2447 7.3201,0.718c0.6011,0.1181 0.5149,0.3523 0.3686,0.7411c-0.7143,1.5653 -1.2835,3.374 -2.6409,4.4171c-1.3389,1.0276 -3.1799,1.4516 -4.8661,1.4215c-1.6854,-0.034 -3.522,-0.5985 -4.8434,-1.6799c-1.2682,-1.0368 -1.8304,-2.7273 -2.505,-4.189c-0.1362,-0.4097 -0.1751,-0.6048 0.3825,-0.7097c2.2322,-0.4217 4.5245,-0.7169 6.7842,-0.7191z" fill="#343432" stroke="none" stroke-width="1" stroke-linecap="round"/></g></g></svg>