<svg version="1.1" xmlns="http://www.w3.org/2000/svg" xmlns:xlink="http://www.w3.org/1999/xlink" width="137.85066" height="135.47945" viewBox="0,0,137.85066,135.47945"><g transform="translate(-164.60684,-78.42355)"><g data-paper-data="{&quot;isPaintingLayer&quot;:true}" fill-rule="evenodd" stroke="none" stroke-width="1" stroke-linecap="butt" stroke-linejoin="miter" stroke-miterlimit="10" stroke-dasharray="" stroke-dashoffset="0" style="mix-blend-mode: normal"><path d="M253.52288,87.34747l-9.46119,13.31781l-20.97757,-1.7071l-13.1581,-14.87963c0,0 8.19645,-4.27381 8.19645,-4.44331c3.68476,-1.84028 11.12723,-1.08964 15.28626,-0.89593c1.90926,0.09686 13.0365,0.13318 14.07017,1.81607c0.81478,1.30757 6.04397,6.79208 6.04397,6.79208z" fill="#aaa082"/><path d="M298.71282,167.00009c-8.12349,19.89197 -21.50049,37.37462 -43.39013,42.72596c-0.31618,-0.43586 -14.90928,-21.61117 -14.90928,-21.61117c6.16558,-5.60559 9.77737,-10.81164 16.81854,-15.29127c8.93827,-5.67823 20.0655,-12.90617 28.95513,-18.66915z" fill="#aaa082"/><path d="M220.59114,171.03175l-1.30122,17.88219c-0.2797,3.91059 -2.23761,14.37113 -2.23761,14.37113c0,0 -7.71002,4.21327 -10.1422,4.51595c-3.7942,0.5085 -11.01778,-3.99534 -14.2161,-6.05355c-10.72592,-6.87683 -17.15904,-17.66426 -22.44904,-28.88754l16.84286,-20.06147c0.62021,-0.64168 32.76149,17.74901 33.50331,18.23329z" fill="#aaa082"/><path d="M219.69123,94.62384l-9.98411,26.63562c0,0 -16.12537,10.65425 -19.99254,13.07567c0,0 -18.59403,-6.80419 -18.667,-7.02212c-0.25538,-0.09686 -1.47147,-7.36112 -1.79981,-7.4943c2.71188,-9.77043 9.53415,-18.82654 17.15904,-25.42491c3.72124,-3.22049 12.93921,-8.53551 17.41442,-10.61793c1.48363,-0.66589 9.83818,1.75553 9.83818,1.75553z" fill="#dcd2b4"/><path d="M255.31053,209.75026c-7.49954,2.60974 -15.36926,4.0116 -23.31246,4.15274c-4.45673,-0.00904 -8.89997,-0.48792 -13.25539,-1.42864c-3.36857,-0.73853 -9.74089,-1.94924 -12.29468,-4.37066c2.40483,-4.36463 5.20972,-8.49862 8.37887,-12.34924c1.67821,-1.85239 11.7596,-13.88684 18.05895,-14.79488l13.0365,14.80698z" fill="#f0e6d2"/><path d="M281.32272,157.45969l-24.10292,15.37602c0,0 -28.05522,-9.26193 -28.05522,-10.98114c0,-0.25425 -1.09448,-36.53923 -1.09448,-36.78137c-0.32834,-1.356 30.2685,-17.47055 31.16841,-18.23329c0.89991,-0.76275 25.1366,23.0156 26.04867,22.24074c0.76614,-0.64168 -3.96446,28.37904 -3.96446,28.37904z" fill="#dcd2b4"/><path d="M229.03081,156.46691c0,0 -6.6277,7.48219 -7.11413,8.47497c0.14593,-0.48428 -14.77551,6.40466 -14.77551,6.40466c0,0 -16.67261,-8.22072 -25.06364,-16.94994v-24.2142c0.38915,-0.26636 25.03931,-16.18719 25.39198,-16.45355l15.63893,3.0631l5.71563,17.60372z" fill="#f0e6d2"/><path d="M221.91668,164.91804c-0.00476,-0.02818 -0.00476,-0.05695 0,-0.08513z" fill="#f0e6d2"/><path d="M214.87551,195.73024c0,0 -6.91956,-19.98882 -7.85595,-24.39581c5.95885,-6.3078 21.98693,-14.98859 21.98693,-14.98859c9.29094,5.33923 19.55474,10.19418 28.18899,16.48987c-2.32273,7.96647 -7.63705,15.48498 -11.29749,22.94296c-6.00749,1.51339 -26.94858,-0.15739 -31.02248,-0.04843z" fill="#000000"/><path d="M265.95133,86.65737h-0.09729v0z" fill="#f0e6d2"/><path d="M295.0159,115.58123l-15.69973,12.53085c-8.03836,-3.95902 -27.04586,-14.52852 -27.04586,-14.52852l-12.35548,-9.01979l1.70253,-9.24982c0,0 5.88588,-8.64447 8.31806,-10.36368c1.058,-0.72643 6.67634,-2.33667 7.67353,-1.38021c1.50795,-0.38743 6.99252,2.3851 8.29374,3.01467h-0.32834c1.98223,0.52061 23.78674,17.47055 28.54166,27.15623c0.07297,0.15739 0.81478,1.59814 0.89991,1.84028z" fill="#f0e6d2"/><path d="M252.39192,113.9952c0,0 -21.48833,18.99604 -22.60713,19.94039c-0.26615,0.18365 -0.55158,0.33791 -0.85126,0.46007c-1.04584,-0.52061 -12.48925,-11.28382 -13.91208,-12.71246c-1.42283,-1.42864 -2.7362,-2.97835 -4.04958,-4.51595c-0.62021,-0.71432 -2.88214,-2.68778 -3.39289,-3.48685l12.16091,-18.98393c0.19457,-0.27846 21.88964,0.66589 21.88964,0.66589z" fill="#000000"/><path d="M298.70066,166.98798c-6.23926,-2.30241 -12.0969,-5.5223 -17.37794,-9.5525c-0.10945,-1.69499 -3.02807,-29.51711 -3.02807,-30.11036c2.52947,-2.28824 14.34987,-11.84074 16.73341,-11.74389c6.33583,14.62538 11.05427,36.3213 3.67259,51.40675z" fill="#000000"/><path d="M185.84742,157.90765l-15.32275,15.12177l-0.29186,-0.12107c-7.86811,-16.76833 -6.79795,-35.92177 -1.00936,-52.99278c2.77269,1.34389 14.97008,7.97858 15.39571,8.47497c0.18241,0.20582 1.17961,29.20233 1.22825,29.51711z" fill="#000000"/><path d="M218.29272,79.47786l-4.70627,6.05355c-1.3377,-0.19371 -6.34799,-0.88382 -7.6857,-1.06542c-0.70533,-0.09686 -1.41067,-0.25425 -2.116,-0.38743v-0.30268c0.5594,-0.19371 1.09448,-0.41164 1.65388,-0.59325c1.42283,-0.47218 2.84565,-0.95646 4.28064,-1.40442c0.93639,-0.29057 1.88494,-0.52061 2.82133,-0.78696c0.6321,-0.14462 1.25053,-0.3431 1.84846,-0.59325c1.26373,-0.44716 2.57269,-0.7557 3.90365,-0.92014z" fill="#000000"/><path d="M248.92606,85.74934c0,0 -0.94855,-3.47474 -1.47147,-5.19395c3.28978,0.75748 6.53718,1.68698 9.72873,2.78463v0.27846c-0.25538,0.12107 -8.25726,2.13085 -8.25726,2.13085z" fill="#000000"/></g></g></svg>