<svg version="1.1" xmlns="http://www.w3.org/2000/svg" xmlns:xlink="http://www.w3.org/1999/xlink" width="138.35756" height="140.91989" viewBox="0,0,138.35756,140.91989"><g transform="translate(-169.86181,-72.15362)"><g data-paper-data="{&quot;isPaintingLayer&quot;:true}" fill-rule="nonzero" stroke="none" stroke-width="1" stroke-linecap="butt" stroke-linejoin="miter" stroke-miterlimit="10" stroke-dasharray="" stroke-dashoffset="0" style="mix-blend-mode: normal"><g><path d="M301.25213,148.6426c0,32.30552 -27.85342,58.50219 -62.2182,58.50219c-34.36478,0 -62.21598,-26.18555 -62.21598,-58.50219c0,-32.30552 27.84897,-47.3119 62.21598,-47.3119c34.36256,-0.00222 62.2182,15.0086 62.2182,47.3119z" fill="#ec1c2c"/><g fill="#231f20"><path d="M308.21938,148.0177c0,35.92813 -30.97123,65.05581 -69.181,65.05581c-38.20311,0 -69.17656,-29.12767 -69.17656,-65.05581c0,-31.66284 24.06402,-45.91756 55.927,-48.86191c0,0 10.06948,-1.28982 20.31687,-0.4203c34.87849,1.62339 62.11368,15.60459 62.11368,49.28221zM297.6651,148.97172c0,-28.02466 -22.25383,-42.21711 -51.03458,-44.29861c0,0 -18.25094,0.25574 -18.80467,0.32023c-27.00837,2.98215 -47.39863,17.1457 -47.39863,43.97394c0,30.43528 26.2367,55.11753 58.61338,55.11753c32.37446,0 58.61116,-24.6778 58.6245,-55.11308z"/><path d="M258.94829,118.98343c-7.93461,0.40251 -15.53565,0.60266 -23.48583,1.49441c-5.30827,0.59599 -10.42307,0.64269 -14.3548,-3.36687c-0.85395,-0.87841 0.26241,-2.39284 1.32985,-1.71902c2.62856,1.64786 5.27714,2.315 7.94128,2.44398c0.17346,0.14232 9.50463,-1.08967 13.76548,-2.44176c5.14149,-1.40101 10.28742,-2.5574 15.40889,-0.86507c2.44843,0.80947 1.97476,4.31867 -0.60488,4.45432z"/></g><path d="M197.78195,148.32904c0,7.62995 4.11408,13.81441 -0.1868,13.81441c-4.30088,0 -7.78339,-6.18446 -7.78339,-13.81441c0,-7.62772 3.48251,-13.81218 7.78339,-13.81218c4.30088,0 0.1868,6.18668 0.1868,13.81218z" fill="#ffffff"/></g><g><path d="M223.4916,82.55938c2.27053,-1.35653 4.53438,-2.71752 6.80268,-4.07627c1.63229,2.50848 3.27347,4.95691 4.58998,7.74336c4.80791,10.14954 3.74937,20.87061 3.61149,31.60502c-0.83393,0.19792 -2.17268,0.34025 -2.99772,0.48702c0.57375,-13.67208 -2.67971,-26.20557 -12.00644,-35.75912z" fill="#99661d"/><path d="M243.90855,113.14144c0,0 -0.51148,4.1719 -0.55818,4.95913c0,0 -8.38605,2.49958 -11.67509,1.24979l-0.1023,-3.57814c0.06671,-7.1496 -2.15711,-14.82847 -3.47362,-17.23243c-0.62934,-1.14749 -3.1645,-7.70778 -10.89675,-14.58163c-1.3254,-1.17196 -0.87841,-3.3691 0.53817,-4.22082c4.01845,-2.41063 8.02579,-4.82125 12.03979,-7.23188c1.28982,-0.77167 2.81314,-0.1957 3.6871,0.96736c12.29331,16.36291 10.81669,37.97628 10.44086,39.66861zM238.26893,114.72925c0.24907,-9.87824 1.08967,-19.05819 -3.38466,-28.50278c-1.31651,-2.78645 -2.95769,-5.23489 -4.58998,-7.74336c-2.2683,1.35876 -4.53216,2.71974 -6.80268,4.07627c8.8108,9.02429 12.40895,19.9455 12.29776,32.65244v2.56185l2.46622,-0.31356z" fill="#231f20"/></g></g></g></svg>