<svg version="1.1" xmlns="http://www.w3.org/2000/svg" xmlns:xlink="http://www.w3.org/1999/xlink" width="95.8481" height="146.15819" viewBox="0,0,95.8481,146.15819"><g transform="translate(-184.20992,-77.20486)"><g data-paper-data="{&quot;isPaintingLayer&quot;:true}" fill-rule="nonzero" stroke-linejoin="miter" stroke-miterlimit="10" stroke-dasharray="" stroke-dashoffset="0" style="mix-blend-mode: normal"><g stroke="#000000"><g><path d="M231.81035,78.52144c12.67791,0 24.16621,0.74004 32.48568,1.93741c8.31818,1.19543 13.46753,2.84638 13.46753,4.67001c0,1.82363 -5.14935,3.47445 -13.46753,4.66988c-8.31947,1.1975 -19.80777,1.93754 -32.48568,1.93754c-12.67791,0 -24.16621,-0.74004 -32.48568,-1.93754c-8.31818,-1.19543 -13.46753,-2.84625 -13.46753,-4.66988c0,-1.82363 5.14935,-3.47458 13.46753,-4.67001c8.31947,-1.19737 19.80777,-1.93741 32.48568,-1.93741z" fill="#cccccc" stroke-width="2.63315" stroke-linecap="butt"/><path d="M234.39927,208.14223c6.071,0 11.57244,0.77603 15.55678,2.03178c3.98304,1.25368 6.44898,2.98489 6.44898,4.89732c0,1.91243 -2.46594,3.64364 -6.44898,4.89732c-3.98434,1.25575 -9.48578,2.03191 -15.55678,2.03191c-6.071,0 -11.57244,-0.77616 -15.55678,-2.03191c-3.98304,-1.25368 -6.44898,-2.98489 -6.44898,-4.89732c0,-1.91243 2.46594,-3.64364 6.44898,-4.89732c3.98434,-1.25575 9.48578,-2.03178 15.55678,-2.03178z" fill="#56aaff" stroke-width="2.725" stroke-linecap="butt"/><path d="M279.05802,86.25387l-22.00576,128.1512" fill="none" stroke-width="2" stroke-linecap="round"/><path d="M185.20992,85.60665l26.53636,129.44566" fill="none" stroke-width="2" stroke-linecap="round"/></g><path d="M232.87051,126.60856c10.24847,0 19.53594,0.6669 26.26051,1.74467c6.72457,1.07776 10.88638,2.56639 10.88638,4.20983c0,1.64344 -4.16181,3.13207 -10.88638,4.20983c-6.72457,1.07776 -16.01204,1.74467 -26.26051,1.74467c-10.24847,0 -19.53581,-0.6669 -26.26038,-1.74467c-6.7247,-1.07776 -10.88651,-2.56639 -10.88651,-4.20983c0,-1.64344 4.16181,-3.13207 10.88651,-4.20983c6.72457,-1.07776 16.01191,-1.74467 26.26038,-1.74467z" fill="#56aaff" stroke-width="2.20523" stroke-linecap="butt"/></g><path d="M250.57997,207.93279l-4.5306,-1.29446l-5.17783,-0.64723l-5.50144,-0.32361h-6.47228l-5.50144,0.64723l-4.85421,1.29446l-5.50144,2.58891l-14.88625,-73.1368l6.7959,1.94168l9.0612,1.29446l8.09035,0.64723l10.67927,0.32361h8.41397l11.32649,-1.29446l9.0612,-1.29446l6.47228,-1.94168l-12.62095,72.81318z" fill="#56aaff" stroke="#56aaff" stroke-width="2" stroke-linecap="round"/><path d="M269.54376,128.45316l-3.43031,-1.4239l-5.82505,-1.29446l-8.73758,-0.97084l-9.38481,-0.64723h-9.38481h-9.70842l-10.03204,0.64723l-8.73758,1.29446l-7.76674,2.2653l-7.76674,-37.86285l8.09035,1.94168l11.97372,1.29446l12.62095,0.64723l11.97372,0.32361l11.00288,-0.32361l11.00288,-0.64723l11.65011,-1.61807l8.73758,-2.91253z" fill="#cccccc" stroke="#cccccc" stroke-width="2" stroke-linecap="round"/></g></g></svg>