<svg version="1.1" xmlns="http://www.w3.org/2000/svg" xmlns:xlink="http://www.w3.org/1999/xlink" width="169.87479" height="148.95441" viewBox="0,0,169.87479,148.95441"><g transform="translate(-151.53557,-75.76426)"><g data-paper-data="{&quot;isPaintingLayer&quot;:true}" stroke-linecap="butt" stroke-linejoin="miter" stroke-miterlimit="10" stroke-dasharray="" stroke-dashoffset="0" style="mix-blend-mode: normal"><g><path d="M268.89232,223.93117l-41.44594,-44.06872" fill="none" fill-rule="evenodd" stroke="#ffdb5d" stroke-width="1.575"/><path d="M250.61633,223.93117c4.63244,0 4.63244,-4.51989 9.26489,-4.51989c4.63244,0 4.63244,4.51989 9.26575,4.51989c4.62871,0 4.62871,-4.51989 9.25815,-4.51989c4.63101,0 4.63101,4.51989 9.26202,4.51989" fill="none" fill-rule="evenodd" stroke="#ffdb5d" stroke-width="1.575"/><path d="M248.5605,182.49899v16.97807c0,2.35264 -2.82566,3.53083 -4.47831,1.86757l-17.60251,-17.71564z" fill="#fff4e3" fill-rule="nonzero" stroke="none" stroke-width="1"/></g><g><path d="M217.49511,196.43532v27.49585" fill="none" fill-rule="evenodd" stroke="#ffdb5d" stroke-width="1.575"/><path d="M199.21927,223.93117c4.63259,0 4.63259,-4.51989 9.26503,-4.51989c4.63244,0 4.63244,4.51989 9.26489,4.51989c4.62958,0 4.62958,-4.51989 9.25901,-4.51989c4.63101,0 4.63101,4.51989 9.26202,4.51989" fill="none" fill-rule="evenodd" stroke="#ffdb5d" stroke-width="1.575"/><path d="M237.05223,183.629l-17.60251,17.71564c-1.65264,1.66325 -4.47831,0.48507 -4.47831,-1.86757v-16.97807z" fill="#fff4e3" fill-rule="nonzero" stroke="none" stroke-width="1"/></g><g fill-rule="nonzero" stroke="none" stroke-width="1"><path d="M300.30067,120.1001c0,38.55289 -31.05391,69.80625 -69.36147,69.80625c-38.3067,0 -69.36061,-31.25336 -69.36061,-69.80625z" fill="#fff4e3"/><path d="M151.53557,109.99283h12.53748l-12.28742,-12.36714h15.59356l-15.44086,-15.53993c2.54865,-0.42413 5.16239,-0.65612 7.83076,-0.65612c26.31953,0 47.65489,21.47301 47.65489,47.96101c0,2.42491 -0.18267,4.80536 -0.52765,7.13377l-26.88618,2.12595z" fill="#fff4e3"/><path d="M302.73318,108.01543l-3.64883,25.14177l-40.7934,-12.71212c0,0 13.09882,-30.88573 38.9221,-30.88573z" fill="#fff4e3"/><path d="M275.35046,120.1001c0,24.68524 -19.88317,44.69616 -44.41083,44.69616c-17.73428,0 -33.04107,-10.462 -40.15936,-25.58769h26.81061l-29.37876,-19.10847z" fill="#f3e4ce"/></g><g fill-rule="nonzero" stroke="none" stroke-width="1"><path d="M317.09507,113.21796c0,5.23939 -4.22007,9.48727 -9.42662,9.48727c-5.20583,0 -9.42591,-4.24789 -9.42591,-9.48727c0,-5.23924 4.22007,-9.48713 9.42591,-9.48713c5.20655,0 9.42662,4.24789 9.42662,9.48713" fill="#ce2235"/><path d="M314.8504,85.6824c-0.23515,1.0576 0.28132,2.15893 1.25074,2.63138c2.15793,1.05229 3.57327,3.40192 3.23718,6.0452c-0.32706,2.5703 -2.38318,4.66829 -4.93326,5.02761c-2.71268,0.38341 -5.12425,-1.11868 -6.146,-3.38988c-4.35858,-0.41122 -13.55235,-5.3779 -14.05161,-5.3779h-5.52013l-0.15658,0.00229c-3.08447,-0.22526 -5.50436,-2.86108 -5.3951,-6.04836c0.10625,-3.09379 2.7253,-5.64459 5.80231,-5.65434c0.85328,-0.00229 1.66253,0.18152 2.39308,0.51145c0.64666,0.29379 1.38236,0.04531 1.71917,-0.58372c0.9829,-1.83431 2.90582,-3.08189 5.1221,-3.08189c3.21624,0 5.82411,2.62378 5.82411,5.86153c0,0.03169 -0.00459,0.06252 -0.00459,0.0942c1.08685,-2.11749 3.41325,-3.48638 6.01724,-3.11802c2.57403,0.36391 4.64148,2.50778 4.94086,5.10604c0.07857,0.68466 0.03972,1.34838 -0.09951,1.97439" fill="#ce2235"/><path d="M302.5746,78.4289c0,0 -0.58085,-1.50668 0.36979,-0.15901c0.95135,1.34695 2.0577,1.79287 3.40493,1.00412c1.34723,-0.78861 -0.4019,3.70188 -0.4019,3.70188l-2.42147,0.18597l-1.50596,-0.99279z" fill="#ce2235"/><path d="M298.04353,105.42592c2.34504,-4.04973 6.69014,-6.77976 11.68334,-6.77976c4.99334,0 9.3383,2.73003 11.68348,6.77976z" fill="#ffdb5d"/><path d="M310.77959,99.80699c0,7.13377 -5.74625,12.9163 -12.83371,12.9163c-7.08832,0 -12.83385,-5.78252 -12.83385,-12.9163c0,-7.13306 5.74553,-12.9163 12.83385,-12.9163c7.08746,0 12.83371,5.78324 12.83371,12.9163" fill="#e8441d"/><path d="M303.77658,99.80699c0,3.24148 -2.61073,5.86898 -5.8307,5.86898c-3.22083,0 -5.83156,-2.62751 -5.83156,-5.86898c0,-3.24076 2.61073,-5.86827 5.83156,-5.86827c3.21997,0 5.8307,2.62751 5.8307,5.86827" fill="#fff4e3"/><path d="M301.75086,99.80699c0,2.11606 -1.70369,3.82978 -3.80469,3.82978c-2.10258,0 -3.80541,-1.71372 -3.80541,-3.82978c0,-2.11534 1.70283,-3.82978 3.80541,-3.82978c2.101,0 3.80469,1.71444 3.80469,3.82978" fill="#17242d"/></g></g></g></svg>