<svg version="1.1" xmlns="http://www.w3.org/2000/svg" xmlns:xlink="http://www.w3.org/1999/xlink" width="131.71513" height="138.22851" viewBox="0,0,131.71513,138.22851"><g transform="translate(-168.22377,-75.03458)"><g data-paper-data="{&quot;isPaintingLayer&quot;:true}" fill-rule="evenodd" stroke-miterlimit="10" stroke-dasharray="" stroke-dashoffset="0" style="mix-blend-mode: normal"><g><path d="M212.95744,172.88655c1.11102,0.55551 3.47192,1.8054 0.13888,6.52722c-3.33305,4.72182 -12.91556,5.69395 -14.02657,5.69395c-4.30519,0.13888 -9.58251,0.13888 -15.41534,-1.8054c-16.94299,-5.55508 -17.08186,-23.74796 -11.66566,-26.66437c5.27732,-2.91642 7.63823,8.33262 15.27646,15.13759c3.33305,3.05529 7.36048,4.16631 10.69352,4.86069c4.72182,0.83326 13.74882,-4.44406 14.99871,-3.74968z" fill="#ffab19" stroke="#001026" stroke-width="1.2" stroke-linecap="round" stroke-linejoin="round"/><path d="M178.51596,161.63752c2.22203,3.74968 6.52722,9.027 6.52722,9.027c0,0 -5.13845,-1.24989 -8.05486,1.11102c-2.36091,1.8054 -1.8054,4.86069 -1.52765,5.83283c-1.8054,-1.8054 -4.02743,-4.30519 -5.4162,-9.16588c-1.38877,-4.86069 0,-10.69352 2.77754,-11.52679c2.77754,-0.55551 3.47192,1.52765 5.69395,4.72182z" fill="#ffffff" stroke="none" stroke-width="1" stroke-linecap="butt" stroke-linejoin="miter"/></g><path d="M219.90129,187.32976c-2.49979,1.66652 -11.11016,7.77711 -22.08143,11.24903l-0.55551,0.13888c-0.55551,0.13888 -0.83326,0.83326 -0.55551,1.38877c2.36091,3.33305 6.66609,9.99914 -0.97214,12.36005c-7.36048,2.36091 -21.1093,-17.22074 -15.27646,-22.35919c2.63866,-1.94428 4.99957,-0.97214 6.24946,-0.41663c0.69438,0.27775 1.38877,0.27775 2.08315,0.13888c1.66652,-0.55551 4.72182,-1.66652 7.08272,-2.91642c5.97171,-3.05529 7.36048,-4.30519 10.13802,-6.38834c2.77754,-2.08315 9.16588,-7.2216 14.30433,-2.77754c4.44406,3.74968 1.94428,7.91599 -0.41663,9.58251z" fill="#ffab19" stroke="#001026" stroke-width="1.2" stroke-linecap="round" stroke-linejoin="round"/><path d="M241.98272,158.44335c0.69438,0.55551 9.16588,10.55465 11.94342,8.05486c3.33305,-2.91642 7.91599,-8.61037 12.91556,-4.02743c4.99957,4.58294 -4.44406,12.36005 -8.47149,14.4432c-9.58251,4.30519 -17.35962,-3.88855 -19.02614,-6.11059c-1.66652,-2.22203 -4.58294,-5.97171 -4.58294,-9.58251c0.13888,-3.88855 4.86069,-4.86069 7.2216,-2.77754z" fill="#ffab19" stroke="#001026" stroke-width="1.2" stroke-linecap="round" stroke-linejoin="round"/><g><path d="M242.1216,190.80168c2.91642,2.63866 9.30476,8.05486 9.30476,8.05486c0,0 19.8594,-3.47192 19.8594,6.52722c0,5.97171 -9.99914,7.36048 -23.4702,6.11059c-0.83326,-0.13888 -1.66652,-0.41663 -2.36091,-0.97214c-3.05529,-2.63866 -11.80454,-10.41577 -17.35962,-15.83197c-8.19374,-8.05486 -14.99871,-13.33219 -14.99871,-13.33219c-11.80454,-11.52679 -2.22203,-16.38748 1.52765,-23.05357c3.47192,-5.69395 4.99957,-4.58294 13.33219,-2.91642c4.72182,0.69438 7.49936,1.11102 10.55465,0.97214c4.58294,-0.13888 3.74968,6.52722 2.49979,9.99914c0,0 -1.94428,5.13845 -3.74968,7.77711c-2.22203,3.19417 -3.88855,5.27732 -5.55508,6.52722z" fill="#ffab19" stroke="#001026" stroke-width="1.2" stroke-linecap="round" stroke-linejoin="round"/><path d="M230.45594,180.52479c0,0 -2.08315,-1.66652 -4.30519,-3.74968c-2.77754,-2.49979 -5.55508,-4.58294 -2.77754,-8.88812c2.49979,-3.33305 4.86069,-7.77711 11.11016,-3.74968c5.97171,3.74968 3.33305,7.2216 3.33305,7.2216c-3.05529,6.24946 -7.36048,9.16588 -7.36048,9.16588z" fill="#ffffff" stroke="none" stroke-width="1" stroke-linecap="butt" stroke-linejoin="miter"/></g><path d="M209.48552,169.13688c3.05529,3.88855 7.77711,8.74925 1.8054,12.77668c-8.19374,4.58294 -14.99871,-9.30476 -16.38748,-14.16545c-1.24989,-4.30519 2.36091,-7.08272 5.4162,-9.44363c5.97171,-4.30519 10.97128,-8.19374 16.52636,-6.11059c6.94385,2.49979 1.94428,8.05486 -1.52765,10.55465c-2.08315,1.52765 -4.16631,3.19417 -5.69395,4.16631c-0.41663,0.69438 -0.55551,1.52765 -0.13888,2.22203z" fill="#ffab19" stroke="#001026" stroke-width="1.2" stroke-linecap="round" stroke-linejoin="round"/><g><path d="M253.23176,75.53381c0.41663,-0.27775 1.11102,-0.13888 1.24989,0.41663l3.6108,14.85983c0,0 8.88812,6.52722 11.52679,11.11016c4.44406,7.63823 4.58294,13.88769 4.58294,13.88769c0,0 9.86026,2.91642 11.52679,10.8324c1.66652,7.91599 -4.44406,22.9147 -30.55293,28.05314c-26.10887,5.13845 -47.07928,-1.94428 -56.93955,-17.77625c-9.86026,-15.83197 5.69395,-34.71924 4.86069,-33.60822l-2.91642,-24.85897c-0.13888,-0.55551 0.55551,-0.97214 1.11102,-0.69438l16.80411,10.97128c0,0 6.24946,-2.36091 12.77668,-2.63866c3.88855,-0.27775 7.2216,0 10.41577,0.55551z" fill="#ffab19" stroke="#001026" stroke-width="1.2" stroke-linecap="butt" stroke-linejoin="miter"/><path d="M273.78554,116.36364c0,0 9.58251,2.49979 11.24903,10.41577c1.66652,7.91599 -4.99957,22.22031 -30.83068,27.21988c-33.60822,6.94385 -49.57907,-13.05443 -40.27431,-27.77539c9.30476,-14.85983 25.2756,-2.22203 36.94127,-3.05529c9.99914,-0.69438 11.11016,-9.44363 22.9147,-6.80497z" fill="#ffffff" stroke="none" stroke-width="1" stroke-linecap="butt" stroke-linejoin="miter"/><path d="M230.03931,131.22347c0,-0.55551 0.55551,-0.97214 1.11102,-0.83326c2.63866,0.97214 10.13802,3.19417 18.47063,3.74968c7.49936,0.41663 11.94342,0 14.02657,-0.41663c0.69438,-0.13888 1.24989,0.55551 0.97214,1.24989c-1.24989,3.74968 -6.52722,14.16545 -21.1093,13.33219c-12.6378,-1.38877 -13.88769,-10.27689 -13.47106,-17.08186z" fill="#ffffff" stroke="#001026" stroke-width="1.2" stroke-linecap="round" stroke-linejoin="round"/><path d="M299.3389,117.89128c-6.52722,5.27732 -16.52636,5.4162 -16.52636,5.4162" fill="none" stroke="#001026" stroke-width="1.2" stroke-linecap="round" stroke-linejoin="round"/><path d="M297.5335,133.4455c-8.74925,0.69438 -14.16545,-1.94428 -14.16545,-1.94428" fill="none" stroke="#001026" stroke-width="1.2" stroke-linecap="round" stroke-linejoin="round"/><path d="M250.31534,119.55781c2.91642,0 5.97171,0.27775 6.11059,1.24989c0.13888,1.94428 -1.94428,5.83283 -4.16631,5.97171c-2.49979,0.27775 -8.33262,-3.19417 -8.33262,-5.4162c-0.13888,-1.66652 3.6108,-1.8054 6.38834,-1.8054z" fill="#001026" stroke="#001026" stroke-width="1.2" stroke-linecap="round" stroke-linejoin="round"/><path d="M187.82071,117.47465c0,0 11.94342,3.88855 16.80411,8.19374" fill="none" stroke="#001026" stroke-width="1.2" stroke-linecap="round" stroke-linejoin="round"/><path d="M205.04145,130.52909c-5.97171,2.36091 -16.2486,0.83326 -16.2486,0.83326" fill="none" stroke="#001026" stroke-width="1.2" stroke-linecap="round" stroke-linejoin="round"/><g><path d="M266.70282,103.3092c4.02743,6.24946 4.16631,13.33219 0.27775,15.83197c-3.88855,2.49979 -10.27689,-0.41663 -14.4432,-6.66609c-4.02743,-6.24946 -4.16631,-13.33219 -0.27775,-15.83197c3.88855,-2.63866 10.41577,0.41663 14.4432,6.66609z" fill="#ffffff" stroke="#001026" stroke-width="1.2" stroke-linecap="round" stroke-linejoin="round"/><path d="M266.14731,111.22519c0,1.52765 -1.11102,2.77754 -2.49979,2.77754c-1.38877,0 -2.49979,-1.24989 -2.49979,-2.77754c0,-1.52765 1.11102,-2.77754 2.49979,-2.77754c1.38877,0 2.49979,1.24989 2.49979,2.77754" fill="#001026" stroke="none" stroke-width="1" stroke-linecap="butt" stroke-linejoin="miter"/></g><g><path d="M232.26134,107.19776c4.16631,6.11059 3.88855,13.60994 0.13888,16.2486c-4.58294,2.63866 -10.69352,0.69438 -14.85983,-5.4162c-4.30519,-6.11059 -4.58294,-14.02657 -0.27775,-17.08186c4.30519,-3.19417 10.8324,0.13888 14.99871,6.24946z" fill="#ffffff" stroke="#001026" stroke-width="1.2" stroke-linecap="round" stroke-linejoin="round"/><path d="M231.42807,115.25262c0,1.52765 -1.11102,2.77754 -2.49979,2.77754c-1.38877,0 -2.49979,-1.24989 -2.49979,-2.77754c0,-1.52765 1.11102,-2.77754 2.49979,-2.77754c1.38877,0.13888 2.49979,1.24989 2.49979,2.77754" fill="#001026" stroke="none" stroke-width="1" stroke-linecap="butt" stroke-linejoin="miter"/></g></g></g></g></svg>