<svg version="1.1" xmlns="http://www.w3.org/2000/svg" xmlns:xlink="http://www.w3.org/1999/xlink" width="167.16335" height="170.22705" viewBox="0,0,167.16335,170.22705"><g transform="translate(-144.75671,-62.36094)"><g data-paper-data="{&quot;isPaintingLayer&quot;:true}" fill-rule="evenodd" stroke="none" stroke-width="1" stroke-linecap="butt" stroke-linejoin="miter" stroke-miterlimit="10" stroke-dasharray="" stroke-dashoffset="0" style="mix-blend-mode: normal"><path d="M308.76218,158.5319c-0.94293,1.4144 -2.51449,2.51449 -3.61458,3.92889c-2.51449,3.30027 -2.51449,6.28622 -1.10009,10.05796c3.14311,8.17209 1.10009,17.60142 -5.50044,23.41618c-3.14311,2.8288 -7.38631,4.55751 -11.47236,5.02898c-5.6576,0.62862 -5.34329,0.62862 -10.05796,5.18613c-3.92889,4.08604 -4.71467,11.00089 -8.80071,14.92978c-2.51449,2.51449 -6.60053,6.75769 -16.50133,5.02898c-5.34329,-1.10009 -9.27218,-2.67164 -14.45831,-3.77173c-7.70062,-1.57156 -6.75769,-0.78578 -12.25813,3.77173c-7.38631,5.97191 -18.23004,9.58649 -25.93067,2.8288c-4.08604,-3.61458 -6.12907,-8.01493 -9.27218,-12.25813c-4.71467,-6.44338 -10.05796,-5.97191 -17.28711,-6.44338c-8.17209,-0.47147 -13.67253,-7.70062 -13.67253,-16.18702c-0.15716,-5.50044 0.62862,-11.47236 -2.51449,-16.50133c-2.35733,-3.77173 -4.71467,-6.60053 -7.38631,-10.05796c-6.91484,-8.64356 -4.08604,-17.12996 0.15716,-26.08782c3.14311,-6.60053 -4.55751,-9.9008 -2.8288,-16.34418c1.10009,-4.08604 13.04391,-9.74364 13.82969,-20.43022c0.31431,-4.08604 -0.94293,-17.12996 8.01493,-16.18702c2.67164,0.31431 6.28622,0.47147 8.64356,-1.10009c2.98596,-2.04302 2.98596,-2.98596 3.61458,-6.28622c1.88587,-10.05796 8.17209,-15.24409 18.54435,-12.10098c3.92889,1.25724 6.91484,3.14311 11.00089,2.67164c4.2432,-0.47147 6.28622,-3.61458 9.74364,-5.6576c3.77173,-2.35733 9.27218,-4.40036 13.82969,-3.30027c4.40036,1.10009 5.02898,4.55751 7.54347,7.85778c5.18613,6.75769 11.47236,0.94293 17.75858,0.15716c7.70062,-0.94293 14.144,3.45742 15.71556,10.05796c0.62862,2.51449 1.4144,4.2432 3.14311,6.12907c2.35733,2.51449 3.45742,2.67164 6.60053,2.8288c3.77173,0.15716 8.95787,1.88587 11.62951,4.55751c7.54347,7.85778 0.62862,18.23004 1.57156,27.65938c0.62862,7.072 6.44338,8.95787 10.37227,13.82969c2.51449,2.98596 3.92889,6.91484 4.08604,10.84373c0.15716,4.2432 -0.94293,8.4864 -3.14311,11.94382z" fill="#df6530"/><path d="M301.21872,163.56087c1.25724,5.50044 1.72871,11.47236 -1.72871,16.34418c-2.04302,2.8288 -4.87182,2.67164 -6.91484,4.87182c-5.18613,5.6576 -1.4144,13.82969 -6.12907,21.05884c-2.67164,4.08604 -11.15804,4.71467 -16.18702,5.02898c-0.47147,0 -2.98596,0.47147 -3.30027,2.51449c-2.20018,7.85778 -11.3152,9.11502 -19.01582,9.74364c-5.81476,0.47147 -10.37227,3.92889 -16.34418,2.98596c-2.67164,-0.47147 -5.34329,-1.88587 -8.01493,-2.20018c-4.08604,-0.47147 -5.50044,1.4144 -8.95787,1.88587c-5.18613,0.47147 -8.17209,-3.45742 -12.57244,-5.18613c-4.55751,-1.72871 -9.58649,-1.10009 -13.98684,-3.45742c-4.71467,-2.51449 -7.22916,-7.38631 -11.62951,-10.21511c-3.45742,-2.20018 -5.50044,-4.87182 -7.22916,-8.64356c-1.57156,-3.14311 -1.88587,-5.50044 -5.02898,-7.54347c-1.57156,-1.10009 -2.8288,-1.4144 -4.2432,-2.8288c-3.45742,-3.45742 -7.70062,-5.02898 -8.32924,-14.144c-0.15716,-2.67164 -1.10009,-4.55751 -1.10009,-7.22916c0,-2.8288 -0.31431,-4.71467 -1.10009,-7.70062c-1.57156,-5.18613 0.78578,-10.21511 1.88587,-15.5584c1.25724,-6.75769 -0.31431,-12.10098 0,-19.01582c0.15716,-4.87182 1.72871,-8.4864 5.18613,-11.94382c2.20018,-2.04302 5.02898,-3.30027 6.75769,-5.97191c1.88587,-2.98596 2.35733,-6.60053 3.77173,-9.74364c1.72871,-3.92889 4.08604,-7.072 8.17209,-8.95787c0.31431,-0.15716 13.04391,-4.55751 22.78755,-14.144c6.28622,-6.28622 14.144,-0.78578 22.31609,-0.47147c9.11502,0.31431 16.65849,-3.77173 25.61635,-0.31431c4.08604,1.57156 7.85778,4.2432 11.94382,5.50044c3.92889,1.25724 6.28622,-0.15716 10.37227,0.78578c7.70062,1.88587 11.15804,15.71556 16.81564,22.47324c5.6576,6.60053 13.20107,7.38631 15.24409,16.50133c1.10009,4.40036 -0.47147,8.64356 1.4144,12.7296c1.57156,3.30027 4.2432,5.81476 5.34329,9.27218c2.35733,7.70062 -7.22916,18.23004 -5.81476,23.57333z" fill="#ea9b1f"/><path d="M227.0413,76.4967c8.01493,0 17.12996,5.18613 24.35911,7.85778c7.70062,2.67164 14.30116,2.04302 20.58738,7.072c5.81476,4.71467 5.18613,10.84373 9.27218,17.28711c2.8288,4.40036 10.52942,7.85778 13.20107,13.51538c3.77173,7.85778 2.20018,18.07289 2.20018,25.93067c0,5.34329 2.20018,15.5584 1.10009,20.58738c-2.67164,11.62951 -14.61547,15.24409 -22.15893,23.88764c-6.12907,6.91484 -10.05796,14.30116 -18.3872,18.23004c-9.11502,4.40036 -16.81564,10.68658 -27.65938,10.68658c-5.81476,0 -13.98684,-7.85778 -19.33013,-9.27218c-7.22916,-1.72871 -21.37315,1.72871 -24.83058,-4.71467c-11.62951,-22.00178 -15.40124,-19.01582 -20.90169,-27.18791c-7.38631,-11.00089 -4.87182,-18.70151 -4.87182,-33.00267c0,-7.38631 -4.08604,-14.45831 -1.88587,-21.05884c2.67164,-8.32924 10.05796,-15.24409 15.40124,-21.84462c7.54347,-9.42933 21.53031,-13.35822 32.84551,-17.91573c7.54347,-2.98596 12.10098,-10.05796 21.05884,-10.05796z" fill="#f3bb1b"/><path d="M164.33623,148.15963c0,-34.63105 28.07401,-62.70506 62.70506,-62.70506c34.63105,0 62.70506,28.07401 62.70506,62.70506c0,34.63105 -28.07401,62.70506 -62.70506,62.70506c-34.63105,0 -62.70506,-28.07401 -62.70506,-62.70506z" fill="#f9d20d"/></g></g></svg>