<svg version="1.1" xmlns="http://www.w3.org/2000/svg" xmlns:xlink="http://www.w3.org/1999/xlink" width="99.47555" height="172.84473" viewBox="0,0,99.47555,172.84473"><g transform="translate(-184.4079,-62.34482)"><g data-paper-data="{&quot;isPaintingLayer&quot;:true}" fill-rule="nonzero" stroke-linecap="butt" stroke-linejoin="miter" stroke-miterlimit="10" stroke-dasharray="" stroke-dashoffset="0" style="mix-blend-mode: normal"><g><path d="M185.89896,231.62437c0,0 11.93632,-94.04923 20.39958,-104.00504c8.46121,-9.95581 62.50881,3.04046 62.50881,3.04046c0,0 22.95824,18.07874 5.81234,64.04647c-17.36322,46.55819 -88.72073,36.91811 -88.72073,36.91811" fill="#c7b4b0" stroke="none" stroke-width="1"/><path d="M201.4744,125.3764c33.21543,-7.3541 64.60823,3.13887 64.60823,3.13887c0,0 24.19861,14.24895 10.46427,60.67593c-15.70665,53.10451 -89.43421,42.43522 -89.43421,42.43522c-1.19732,-97.37056 13.17874,-104.81487 14.36171,-106.25002z" fill="none" stroke="#362f52" stroke-width="0.5"/><path d="M264.80945,195.0712c0,0 -0.16607,0.68477 -0.58636,1.84519c-0.22347,0.57406 -0.47975,1.27933 -0.83649,2.06251c-0.17632,0.39364 -0.36494,0.80983 -0.56381,1.25063c-0.22142,0.42849 -0.4572,0.87954 -0.70117,1.34904c-0.47565,0.9513 -1.10301,1.91695 -1.71807,2.96665c-0.69707,0.99845 -1.35109,2.11377 -2.20807,3.13682c-0.41004,0.52485 -0.82623,1.05791 -1.24858,1.59711c-0.4572,0.51255 -0.92054,1.0292 -1.38594,1.55201c-0.90004,1.07431 -1.9682,2.02356 -2.97485,3.03021c-1.03331,0.98 -2.18142,1.83494 -3.24958,2.74113c-1.11736,0.84674 -2.26958,1.61556 -3.35619,2.39464c-1.11736,0.72987 -2.26138,1.34289 -3.31519,1.9641c-0.5228,0.31983 -1.05176,0.59251 -1.58071,0.82828c-0.52075,0.25013 -1.02305,0.48795 -1.5069,0.71757c-0.96975,0.449 -1.83494,0.91029 -2.66732,1.17682c-0.81393,0.29933 -1.52331,0.55971 -2.10966,0.77498c-1.17067,0.42029 -1.84109,0.66017 -1.84109,0.66017c0,0 0.64992,-0.28908 1.78573,-0.79548c0.56791,-0.25013 1.25883,-0.54946 2.05226,-0.89594c0.80368,-0.31573 1.64017,-0.82623 2.58941,-1.29983c0.4695,-0.24603 0.9595,-0.50025 1.4659,-0.76473c0.51255,-0.25013 1.02715,-0.54126 1.53356,-0.87749c1.021,-0.65402 2.11992,-1.30598 3.22293,-2.03176c1.06406,-0.78113 2.18962,-1.55406 3.28443,-2.40079c1.04151,-0.91029 2.16297,-1.76523 3.17167,-2.74113c1.00255,-0.98 2.06866,-1.90259 2.9687,-2.9523c0.4654,-0.5105 0.92874,-1.01485 1.38389,-1.51305c0.42439,-0.52895 0.84264,-1.04971 1.25473,-1.56226c0.84469,-1.00665 1.53971,-2.07276 2.26343,-3.03636c0.64787,-1.01485 1.30598,-1.94975 1.81033,-2.87234c2.14862,-3.62682 3.06301,-6.30439 3.06301,-6.30439" fill="#362f52" stroke="none" stroke-width="1"/></g><g><path d="M227.74987,229.33429c8.46326,-1.03125 12.7851,-3.07121 12.7851,-3.07121c8.48581,2.48895 13.51293,8.67648 13.51293,8.67648h-27.02585c0,-3.85644 0.22757,-5.98661 0.22757,-5.98661" fill="#e09d73" stroke="none" stroke-width="1"/><path d="M228.16197,229.86529c5.74058,-1.20347 12.61698,-3.67602 12.61698,-3.67602c8.53297,2.87029 13.26895,8.75029 13.26895,8.75029h-27.02585c0,-3.85644 0.80163,-5.00046 0.80163,-5.00046" fill="none" stroke="#362f52" stroke-width="0.5"/></g><g><path d="M216.44297,234.89651c0,-3.85644 0.72987,-5.60732 0.72987,-5.60732c8.78104,0 14.65079,-2.15272 14.65079,-2.15272c6.32489,2.42335 11.64519,7.76004 11.64519,7.76004h-27.02585" fill="#e09d73" stroke="none" stroke-width="1"/><path d="M217.17285,229.28918c8.78104,0 14.65079,-2.15272 14.65079,-2.15272c6.32489,2.42335 11.64519,7.76004 11.64519,7.76004h-27.02585c0,-3.85644 0.72987,-5.60732 0.72987,-5.60732z" fill="none" stroke="#362f52" stroke-width="0.5"/></g><g><path d="M267.01137,81.01809c8.48581,3.49766 14.12389,11.12238 14.12389,24.0633c0,12.94092 -9.3428,23.99564 -11.16339,26.08481c-0.67452,0.77498 -0.0328,1.22808 -0.18247,2.25728c-0.15582,1.08251 -0.54126,6.15063 -0.54126,6.15063c-2.30648,0.61711 -6.08297,1.04561 -12.17619,1.04766c-23.06895,0.00205 -42.52543,-7.69033 -49.34442,-12.21719c-9.62163,-6.39255 -5.56427,-4.13117 -5.56427,-7.25364c0,-3.12247 -2.12607,-7.43406 -2.12607,-15.66359c0,-8.22749 2.79443,-14.67334 5.4351,-18.76966c2.63862,-4.09837 23.09765,-11.08343 37.87556,-10.48067c13.33661,0.54536 23.66351,4.78109 23.66351,4.78109" fill="#a77e76" stroke="none" stroke-width="1"/><path d="M269.25635,139.29527c0.14351,1.13377 -6.28594,1.32854 -13.19104,1.32854c-31.80489,0 -57.22953,-15.06903 -54.68317,-17.84912c2.54841,-2.78008 -1.36339,-6.72673 -1.36339,-14.97883c0,-8.25414 1.63812,-16.77276 5.47816,-21.0782c3.84004,-4.30544 17.24226,-10.49502 36.38095,-10.49502c13.10288,0 24.29497,3.22908 30.58911,7.96301c6.29209,4.73393 8.3095,13.37966 8.67443,22.62405c0.34238,8.69904 -7.59807,20.92033 -10.96657,24.0387c0,0 -1.11326,6.92766 -0.91849,8.44686z" fill="none" stroke="#362f52" stroke-width="0.5"/></g><g><path d="M240.81995,86.29122c-21.69326,-0.30343 -34.43121,-21.79577 -34.43121,-21.79577z" fill="#4b3a42" stroke="none" stroke-width="1"/><path d="M205.49691,63.61387c0,0 42.32246,26.69167 42.03953,26.64041c-30.11962,-5.3818 -42.03953,-26.64041 -42.03953,-26.64041z" fill="none" stroke="#362f52" stroke-width="0.5265"/></g><g><path d="M264.05907,86.13746l18.72456,-21.79577c0,0 -6.92766,21.49439 -18.72456,21.79577" fill="#4b3a42" stroke="none" stroke-width="1"/><path d="M260.4056,90.10051c-0.15582,0.05126 22.86188,-26.63836 22.86188,-26.63836c0,0 -6.48276,21.25656 -22.86188,26.63836" fill="none" stroke="#362f52" stroke-width="0.5265"/></g><g><path d="M256.71112,105.01783c0,-11.50577 5.46791,-20.83217 12.21514,-20.83217c6.74724,0 12.21514,9.3264 12.21514,20.83217c0,11.50372 -5.46791,20.83217 -12.21514,20.83217c-6.74724,0 -12.21514,-9.32845 -12.21514,-20.83217" fill="#c4afad" stroke="none" stroke-width="1"/><path d="M263.62648,105.48733c0,-4.8795 2.32084,-8.83435 5.18088,-8.83435c2.86209,0 5.18088,3.95485 5.18088,8.83435c0,4.88155 -2.31879,8.8364 -5.18088,8.8364c-2.86004,0 -5.18088,-3.95485 -5.18088,-8.8364" fill="#fccf87" stroke="none" stroke-width="1"/><path d="M272.00363,105.71285c0,3.07121 -1.45975,5.56222 -3.26188,5.56222c-1.80008,0 -3.26188,-2.491 -3.26188,-5.56222c0,-3.07121 1.4618,-5.56222 3.26188,-5.56222c1.80213,0 3.26188,2.491 3.26188,5.56222" fill="#362f52" stroke="none" stroke-width="1"/><path d="M263.62648,105.30896c0,-4.8795 2.32084,-8.83435 5.18088,-8.83435c2.86209,0 5.18088,3.95485 5.18088,8.83435c0,4.8795 -2.31879,8.83435 -5.18088,8.83435c-2.86004,0 -5.18088,-3.95485 -5.18088,-8.83435z" fill="none" stroke="#605579" stroke-width="0.5"/><path d="M256.63732,105.08139c0,-11.51807 5.47406,-20.85472 12.22744,-20.85472c6.75544,0 12.2295,9.33665 12.2295,20.85472c0,11.51602 -5.47406,20.85472 -12.2295,20.85472c-6.75339,0 -12.22744,-9.3387 -12.22744,-20.85472z" fill="none" stroke="#605579" stroke-width="0.5265"/><path d="M270.17484,95.17273c0,0 -0.01435,-0.55766 0.0287,-1.38594c0.0451,-0.82828 0.13326,-1.92925 0.27883,-3.01996c0.14351,-1.09481 0.34444,-2.18142 0.51665,-2.99125c0.17427,-0.81188 0.33418,-1.34699 0.33418,-1.34699c0,0 0.01435,0.55766 -0.0287,1.38594c-0.04305,0.82828 -0.13326,1.92925 -0.28088,3.02201c-0.14146,1.09276 -0.34444,2.17937 -0.5146,2.99125c-0.17427,0.80983 -0.33418,1.34494 -0.33418,1.34494" fill="#605579" stroke="none" stroke-width="1"/><path d="M266.53572,124.48046c0,0 -0.0246,-0.55971 0.0041,-1.39209c0.03075,-0.83238 0.09841,-1.93745 0.22552,-3.03841c0.12301,-1.09891 0.30343,-2.19372 0.46335,-3.01176c0.15787,-0.81803 0.30753,-1.35724 0.30753,-1.35724c0,0 0.0246,0.55971 -0.00205,1.39209c-0.03075,0.83033 -0.09841,1.93745 -0.22552,3.03636c-0.12301,1.10096 -0.30753,2.19577 -0.46335,3.01381c-0.15992,0.81803 -0.30958,1.35724 -0.30958,1.35724" fill="#605579" stroke="none" stroke-width="1"/><path d="M275.80677,120.76343c0,0 -0.28703,-0.39569 -0.65812,-1.0169c-0.37314,-0.62121 -0.84264,-1.4618 -1.25678,-2.32904c-0.42234,-0.86314 -0.78728,-1.75293 -1.04151,-2.4295c-0.25423,-0.67657 -0.38544,-1.14607 -0.38544,-1.14607c0,0 0.29113,0.39569 0.66222,1.0169c0.37109,0.62121 0.84059,1.4618 1.25678,2.32699c0.42029,0.86519 0.78523,1.75498 1.03946,2.43155c0.25423,0.67657 0.38339,1.14607 0.38339,1.14607" fill="#605579" stroke="none" stroke-width="1"/><path d="M278.74882,114.73787c0,0 -0.35264,-0.17222 -0.84059,-0.4777c-0.4859,-0.30753 -1.11736,-0.73808 -1.71192,-1.21577c-0.59661,-0.4736 -1.15632,-0.9923 -1.56021,-1.40029c-0.40594,-0.40594 -0.64787,-0.71142 -0.64787,-0.71142c0,0 0.35264,0.17017 0.84059,0.47565c0.48795,0.30753 1.11941,0.74013 1.71192,1.21782c0.59661,0.4736 1.15632,0.9923 1.56021,1.40029c0.40594,0.40594 0.64787,0.71142 0.64787,0.71142" fill="#605579" stroke="none" stroke-width="1"/><path d="M280.27827,107.72411c0,0 -0.34033,0.0287 -0.84264,0.00615c-0.5023,-0.02255 -1.16657,-0.07996 -1.81854,-0.19682c-0.65402,-0.11276 -1.29778,-0.28088 -1.77753,-0.43054c-0.4777,-0.14967 -0.78933,-0.29113 -0.78933,-0.29113c0,0 0.34033,-0.0287 0.84264,-0.00615c0.5023,0.02255 1.16657,0.07996 1.81854,0.19887c0.65402,0.11071 1.29778,0.28088 1.77753,0.42849c0.47975,0.14967 0.78933,0.29113 0.78933,0.29113" fill="#605579" stroke="none" stroke-width="1"/><path d="M279.90308,99.36951c0,0 -0.27473,0.22962 -0.71962,0.52075c-0.4449,0.28908 -1.05176,0.65197 -1.68322,0.9595c-0.62941,0.31368 -1.28753,0.57201 -1.78983,0.74628c-0.5023,0.17632 -0.85699,0.25423 -0.85699,0.25423c0,0 0.27678,-0.23372 0.72167,-0.5228c0.44285,-0.29113 1.04766,-0.65197 1.68117,-0.9595c0.63146,-0.31368 1.28753,-0.57201 1.78983,-0.74628c0.5023,-0.17427 0.85699,-0.25218 0.85699,-0.25218" fill="#605579" stroke="none" stroke-width="1"/><path d="M276.82162,91.34909c0,0 -0.14351,0.4531 -0.41824,1.10506c-0.27473,0.64992 -0.66632,1.50485 -1.11121,2.33109c-0.44079,0.83033 -0.9349,1.63197 -1.32443,2.22243c-0.38954,0.59046 -0.68887,0.9636 -0.68887,0.9636c0,0 0.14351,-0.45515 0.41824,-1.10506c0.27473,-0.65197 0.66632,-1.50485 1.11121,-2.33314c0.44079,-0.82828 0.9349,-1.62787 1.32443,-2.22038c0.38954,-0.59046 0.68887,-0.9636 0.68887,-0.9636" fill="#605579" stroke="none" stroke-width="1"/><path d="M265.53522,87.08466c0,0 0.18862,0.51665 0.40389,1.30393c0.21322,0.78933 0.4736,1.84314 0.67247,2.9113c0.20502,1.06611 0.35059,2.14247 0.43874,2.95435c0.08611,0.81188 0.10046,1.35929 0.10046,1.35929c0,0 -0.18657,-0.51665 -0.40389,-1.30598c-0.21527,-0.78728 -0.4736,-1.84109 -0.67042,-2.90925c-0.20707,-1.06611 -0.35059,-2.14247 -0.43874,-2.95435c-0.08611,-0.81188 -0.10251,-1.35929 -0.10251,-1.35929" fill="#605579" stroke="none" stroke-width="1"/><path d="M260.84024,91.9375c0,0 0.33008,0.28908 0.77293,0.76063c0.4449,0.47155 1.0128,1.11736 1.53151,1.80008c0.52485,0.67862 1.00255,1.39209 1.34084,1.94155c0.33828,0.54946 0.52895,0.9431 0.52895,0.9431c0,0 -0.33008,-0.28908 -0.77498,-0.76063c-0.44285,-0.47155 -1.01075,-1.11736 -1.52946,-1.80008c-0.52485,-0.67862 -1.0005,-1.39414 -1.34084,-1.94155c-0.33623,-0.55151 -0.52895,-0.9431 -0.52895,-0.9431" fill="#605579" stroke="none" stroke-width="1"/><path d="M258.37179,99.06403c0,0 0.35469,0.12096 0.85289,0.35674c0.49615,0.23577 1.14607,0.57201 1.76113,0.96155c0.61711,0.38339 1.20347,0.81598 1.62992,1.16042c0.42849,0.34444 0.69092,0.61301 0.69092,0.61301c0,0 -0.35674,-0.12096 -0.85289,-0.35674c-0.4982,-0.23577 -1.14607,-0.57406 -1.76113,-0.9636c-0.61711,-0.38339 -1.20552,-0.81803 -1.63197,-1.16042c-0.42849,-0.34444 -0.68887,-0.61096 -0.68887,-0.61096" fill="#605579" stroke="none" stroke-width="1"/><path d="M257.972,107.50063c0,0 0.32803,-0.08611 0.82008,-0.14967c0.49205,-0.06151 1.15017,-0.11891 1.80623,-0.11276c0.66017,-0.00205 1.31623,0.05536 1.80828,0.12096c0.49205,0.06561 0.82008,0.15377 0.82008,0.15377c0,0 -0.32803,0.08611 -0.82008,0.14967c-0.4941,0.06151 -1.15017,0.11686 -1.80828,0.11276c-0.65607,0.00205 -1.31418,-0.05741 -1.80623,-0.12301c-0.49205,-0.06561 -0.82008,-0.15172 -0.82008,-0.15172" fill="#605579" stroke="none" stroke-width="1"/><path d="M259.30054,115.67687c0,0 0.23167,-0.32188 0.62531,-0.75448c0.39774,-0.43259 0.9431,-0.9882 1.52946,-1.50075c0.58021,-0.5146 1.20347,-0.98615 1.68527,-1.32238c0.4818,-0.33828 0.83238,-0.52895 0.83238,-0.52895c0,0 -0.23372,0.31983 -0.62941,0.75448c-0.39364,0.43259 -0.94105,0.9882 -1.52741,1.4987c-0.58226,0.51665 -1.20552,0.98615 -1.68322,1.32238c-0.48385,0.33828 -0.83238,0.531 -0.83238,0.531" fill="#605579" stroke="none" stroke-width="1"/><path d="M271.14254,124.51327c0,0 -0.13531,-0.54741 -0.27268,-1.37364c-0.13736,-0.82418 -0.29318,-1.9272 -0.38749,-3.03636c-0.10251,-1.10711 -0.14351,-2.22038 -0.14967,-3.05686c-0.0082,-0.83649 0.03075,-1.39824 0.03075,-1.39824c0,0 0.13531,0.54741 0.27473,1.37159c0.13941,0.82623 0.29318,1.92925 0.38749,3.03636c0.10046,1.10916 0.13941,2.22243 0.14762,3.05891c0.0082,0.83649 -0.03075,1.39824 -0.03075,1.39824" fill="#605579" stroke="none" stroke-width="1"/><path d="M262.31844,121.37235c0,0 0.10661,-0.4941 0.32393,-1.21167c0.21937,-0.71552 0.5351,-1.66067 0.91029,-2.58531c0.36904,-0.92464 0.79138,-1.82674 1.13377,-2.49715c0.33828,-0.66837 0.60686,-1.09891 0.60686,-1.09891c0,0 -0.10456,0.4941 -0.32188,1.21167c-0.21732,0.71552 -0.53715,1.66067 -0.91234,2.58531c-0.36904,0.92259 -0.79343,1.82469 -1.13172,2.49715c-0.34238,0.66837 -0.60891,1.09891 -0.60891,1.09891" fill="#605579" stroke="none" stroke-width="1"/><path d="M271.32501,104.16904c0.07381,0.62121 -0.12096,1.15632 -0.43669,1.19322c-0.31573,0.0369 -0.63146,-0.43669 -0.70527,-1.05791c-0.07586,-0.62326 0.11891,-1.15837 0.43464,-1.19322c0.31573,-0.0369 0.63146,0.43669 0.70732,1.05791" fill="#ffffff" stroke="none" stroke-width="1"/></g><g><path d="M255.32313,109.6349c0,0 6.68778,6.42125 8.56372,11.41761c0.30753,0.22142 -15.64924,0 -15.64924,0l3.05686,-9.7795c0,0 0.4777,3.75393 4.02866,-1.63812" fill="#e89b60" stroke="none" stroke-width="1"/><path d="M255.32313,109.6349c0,0 6.68778,6.42125 8.56372,11.41761c0.30753,0.22142 -15.64924,0 -15.64924,0l3.05686,-9.7795c0,0 0.4777,3.75393 4.02866,-1.63812z" fill="none" stroke="#615d7a" stroke-width="0.5"/></g><g><path d="M211.98582,105.30691c0,-11.50577 9.46171,-20.83217 21.13355,-20.83217c11.67184,0 21.13355,9.3264 21.13355,20.83217c0,11.50372 -9.46171,20.83217 -21.13355,20.83217c-11.67184,0 -21.13355,-9.32845 -21.13355,-20.83217" fill="#c4afad" stroke="none" stroke-width="1"/><path d="M223.95084,105.77641c0,-4.8795 4.01226,-8.83435 8.96351,-8.83435c4.95125,0 8.96351,3.95485 8.96351,8.83435c0,4.88155 -4.01226,8.8364 -8.96351,8.8364c-4.95125,0 -8.96351,-3.95485 -8.96351,-8.8364" fill="#fccf87" stroke="none" stroke-width="1"/><path d="M240.33201,106.00193c0,3.07121 -2.52586,5.56222 -5.64217,5.56222c-3.11632,0 -5.64217,-2.491 -5.64217,-5.56222c0,-3.07121 2.52586,-5.56222 5.64217,-5.56222c3.11632,0 5.64217,2.491 5.64217,5.56222" fill="#362f52" stroke="none" stroke-width="1"/><path d="M223.95084,105.59804c0,-4.8795 4.01226,-8.83435 8.96351,-8.83435c4.95125,0 8.96351,3.95485 8.96351,8.83435c0,4.8795 -4.01226,8.83435 -8.96351,8.83435c-4.95125,0 -8.96351,-3.95485 -8.96351,-8.83435z" fill="none" stroke="#605579" stroke-width="0.5"/><path d="M211.85871,105.37047c0,-11.51807 9.47196,-20.85472 21.1561,-20.85472c11.68619,0 21.1561,9.33665 21.1561,20.85472c0,11.51602 -9.46991,20.85472 -21.1561,20.85472c-11.68414,0 -21.1561,-9.3387 -21.1561,-20.85472z" fill="none" stroke="#605579" stroke-width="0.5265"/><path d="M235.28029,95.46181c0,0 0.041,-0.56381 0.16197,-1.39824c0.12711,-0.83443 0.31778,-1.94155 0.57201,-3.03431c0.24808,-1.09276 0.55356,-2.17322 0.80368,-2.97895c0.25218,-0.80573 0.46335,-1.33264 0.46335,-1.33264c0,0 -0.03895,0.56381 -0.16197,1.39824c-0.12506,0.83443 -0.31778,1.94155 -0.57201,3.03431c-0.24808,1.09276 -0.55561,2.17322 -0.80573,2.97895c-0.25218,0.80573 -0.4613,1.33264 -0.4613,1.33264" fill="#605579" stroke="none" stroke-width="1"/><path d="M228.9841,124.76954c0,0 0.02255,-0.56586 0.11891,-1.40439c0.10046,-0.83649 0.25833,-1.9477 0.4777,-3.04661c0.21527,-1.10096 0.4859,-2.18962 0.71347,-3.00356c0.22757,-0.81188 0.42234,-1.34494 0.42234,-1.34494c0,0 -0.02255,0.56586 -0.11891,1.40234c-0.10046,0.83854 -0.26038,1.94975 -0.47975,3.04866c-0.21322,1.10096 -0.48795,2.18962 -0.71347,3.00151c-0.22757,0.81393 -0.42029,1.34699 -0.42029,1.34699" fill="#605579" stroke="none" stroke-width="1"/><path d="M245.02493,121.05251c0,0 -0.43054,-0.37724 -1.02305,-0.98615c-0.59046,-0.60891 -1.35929,-1.4372 -2.07891,-2.30443c-0.72372,-0.86314 -1.40234,-1.76318 -1.89439,-2.45205c-0.49205,-0.69297 -0.78523,-1.17887 -0.78523,-1.17887c0,0 0.42849,0.37724 1.02305,0.98615c0.59251,0.60686 1.35929,1.43515 2.07891,2.30443c0.72372,0.86314 1.40234,1.76523 1.89439,2.4541c0.49,0.68887 0.78523,1.17682 0.78523,1.17682" fill="#605579" stroke="none" stroke-width="1"/><path d="M250.11355,115.02695c0,0 -0.55151,-0.15992 -1.35314,-0.4572c-0.79753,-0.29933 -1.85339,-0.72372 -2.88054,-1.20142c-1.03125,-0.4736 -2.03586,-1.0005 -2.78008,-1.41464c-0.74423,-0.41619 -1.22192,-0.73192 -1.22192,-0.73192c0,0 0.55151,0.15787 1.35109,0.4572c0.80163,0.29728 1.85544,0.72372 2.88259,1.20142c1.03125,0.4736 2.03586,1.0005 2.78008,1.41464c0.74423,0.41619 1.22192,0.73192 1.22192,0.73192" fill="#605579" stroke="none" stroke-width="1"/><path d="M252.76037,108.01319c0,0 -0.57406,0.0287 -1.429,0.0082c-0.85494,-0.02255 -1.99075,-0.07996 -3.12247,-0.19682c-1.12967,-0.11071 -2.25523,-0.28088 -3.09787,-0.43054c-0.84059,-0.14967 -1.39619,-0.29318 -1.39619,-0.29318c0,0 0.57406,-0.0287 1.42695,-0.0082c0.85699,0.02255 1.9928,0.07996 3.12452,0.19682c1.12967,0.11071 2.25523,0.28293 3.09787,0.43259c0.84059,0.14967 1.39619,0.29113 1.39619,0.29113" fill="#605579" stroke="none" stroke-width="1"/><path d="M252.1125,99.65859c0,0 -0.52485,0.23782 -1.32443,0.531c-0.79958,0.29523 -1.87799,0.66017 -2.97075,0.9677c-1.09071,0.31163 -2.19782,0.56791 -3.03636,0.74013c-0.83649,0.17017 -1.40849,0.24192 -1.40849,0.24192c0,0 0.5228,-0.23987 1.32443,-0.53305c0.79958,-0.29523 1.87799,-0.65812 2.97075,-0.9677c1.09071,-0.31163 2.19782,-0.56586 3.03636,-0.73808c0.83854,-0.17017 1.40849,-0.24192 1.40849,-0.24192" fill="#605579" stroke="none" stroke-width="1"/><path d="M246.77786,91.63817c0,0 -0.31778,0.47155 -0.84264,1.13582c-0.52895,0.66427 -1.25063,1.53151 -2.01946,2.35774c-0.76268,0.82828 -1.57251,1.61966 -2.19577,2.19577c-0.62121,0.57611 -1.07021,0.93284 -1.07021,0.93284c0,0 0.31778,-0.4736 0.84469,-1.13787c0.5269,-0.66427 1.25063,-1.52946 2.01741,-2.35364c0.76473,-0.83033 1.57456,-1.61966 2.19577,-2.19782c0.62326,-0.57611 1.07021,-0.93284 1.07021,-0.93284" fill="#605579" stroke="none" stroke-width="1"/><path d="M227.25372,87.37373c0,0 0.25833,0.5064 0.58226,1.28548c0.32188,0.78113 0.72782,1.82879 1.07431,2.89694c0.35264,1.06406 0.64582,2.14862 0.84674,2.96665c0.20092,0.82008 0.29113,1.37979 0.29113,1.37979c0,0 -0.25833,-0.5064 -0.58431,-1.28548c-0.32188,-0.78113 -0.72782,-1.82879 -1.07226,-2.89694c-0.35264,-1.06611 -0.64582,-2.14862 -0.84674,-2.9687c-0.19887,-0.81803 -0.29113,-1.37774 -0.29113,-1.37774" fill="#605579" stroke="none" stroke-width="1"/><path d="M219.1267,92.22658c0,0 0.50435,0.27268 1.22192,0.73192c0.71552,0.45925 1.65452,1.09481 2.55661,1.77753c0.90414,0.67657 1.77343,1.40234 2.41105,1.9641c0.63761,0.56176 1.03536,0.9718 1.03536,0.9718c0,0 -0.50435,-0.27268 -1.22192,-0.73192c-0.71757,-0.4572 -1.65452,-1.09481 -2.55661,-1.77753c-0.90414,-0.67862 -1.77138,-1.40439 -2.41105,-1.9641c-0.63761,-0.56381 -1.03536,-0.9718 -1.03536,-0.9718" fill="#605579" stroke="none" stroke-width="1"/><path d="M214.85816,99.3531c0,0 0.56381,0.11071 1.38594,0.34033c0.82213,0.23167 1.91079,0.56381 2.9769,0.9513c1.06816,0.38544 2.11582,0.82418 2.89489,1.17477c0.77498,0.35059 1.27933,0.62531 1.27933,0.62531c0,0 -0.56381,-0.11276 -1.38799,-0.34238c-0.82213,-0.22962 -1.90874,-0.56176 -2.97485,-0.9513c-1.06816,-0.38339 -2.11582,-0.82418 -2.89284,-1.17477c-0.77908,-0.35059 -1.28138,-0.62326 -1.28138,-0.62326" fill="#605579" stroke="none" stroke-width="1"/><path d="M214.16519,107.78971c0,0 0.56791,-0.08611 1.42079,-0.14967c0.85289,-0.06151 1.9887,-0.11891 3.12657,-0.11276c1.13582,-0.00205 2.27368,0.05536 3.12657,0.12096c0.85289,0.06561 1.41874,0.15377 1.41874,0.15377c0,0 -0.56586,0.08611 -1.42079,0.14967c-0.85084,0.06356 -1.9887,0.11686 -3.12452,0.11276c-1.13787,0.00205 -2.27368,-0.05741 -3.12657,-0.12301c-0.85289,-0.06561 -1.42079,-0.15172 -1.42079,-0.15172" fill="#605579" stroke="none" stroke-width="1"/><path d="M216.46348,115.96595c0,0 0.4654,-0.33418 1.19322,-0.77703c0.72987,-0.44079 1.71192,-1.0046 2.72473,-1.51715c1.0087,-0.5146 2.04611,-0.97795 2.83339,-1.30598c0.78728,-0.32598 1.33264,-0.5064 1.33264,-0.5064c0,0 -0.46335,0.33418 -1.19117,0.77498c-0.72782,0.44285 -1.71397,1.00665 -2.72473,1.51715c-1.0087,0.51665 -2.04611,0.97795 -2.83339,1.30598c-0.78933,0.32803 -1.33469,0.50845 -1.33469,0.50845" fill="#605579" stroke="none" stroke-width="1"/><path d="M236.95531,124.80235c0,0 -0.17017,-0.54126 -0.36289,-1.36339c-0.19067,-0.82213 -0.41619,-1.92105 -0.58226,-3.03021c-0.17017,-1.10711 -0.28498,-2.22243 -0.34649,-3.06301c-0.05946,-0.84264 -0.05741,-1.40849 -0.05741,-1.40849c0,0 0.17017,0.54126 0.36289,1.36134c0.19067,0.82213 0.41619,1.9231 0.58021,3.03021c0.17222,1.10916 0.28293,2.22653 0.34649,3.06506c0.06151,0.84059 0.05946,1.40849 0.05946,1.40849" fill="#605579" stroke="none" stroke-width="1"/><path d="M221.68741,121.66143c0,0 0.25013,-0.51255 0.67862,-1.24038c0.42849,-0.72987 1.0251,-1.68527 1.66887,-2.60787c0.64172,-0.92669 1.33059,-1.81854 1.86569,-2.4746c0.5392,-0.65607 0.93079,-1.07021 0.93079,-1.07021c0,0 -0.24808,0.5105 -0.67657,1.24038c-0.42849,0.72987 -1.0251,1.68527 -1.66887,2.60787c-0.64172,0.92669 -1.33264,1.81648 -1.86774,2.4746c-0.53715,0.65607 -0.93079,1.07021 -0.93079,1.07021" fill="#605579" stroke="none" stroke-width="1"/><path d="M238.58113,104.2367c0,0.62531 -0.5146,1.13377 -1.15017,1.13377c-0.63556,0 -1.15017,-0.50845 -1.15017,-1.13377c0,-0.62736 0.5146,-1.13377 1.15017,-1.13377c0.63556,0 1.15017,0.5064 1.15017,1.13377" fill="#ffffff" stroke="none" stroke-width="1"/></g><g><path d="M279.34133,177.08677c0,0 -13.89631,-28.25393 -8.83845,-44.7253c0,0 15.2351,15.84401 8.83845,44.7253" fill="#a77e76" stroke="none" stroke-width="1"/><path d="M254.71627,116.13201c-0.14556,-2.54021 1.70577,-3.39515 1.70577,-3.39515c0.10456,2.62017 -1.70577,3.39515 -1.70577,3.39515" fill="#615d7a" stroke="none" stroke-width="1"/><path d="M279.34133,177.63212c0,0 -13.86146,-28.91204 -9.10908,-45.56179" fill="none" stroke="#362f52" stroke-width="0.5"/></g><g><path d="M185.09528,232.74379c0,0 -1.05791,-51.66526 0.03485,-72.58764c1.09071,-20.92238 16.22945,-37.89606 16.22945,-37.89606c9.41456,-0.59866 40.04058,6.68163 39.10568,43.72685c-0.95745,37.96987 -55.36999,66.75685 -55.36999,66.75685" fill="#a77e76" stroke="none" stroke-width="1"/><path d="M184.63603,170.4851c0,0 6.99326,0.14351 14.68975,6.32899c14.6918,11.80715 10.8333,38.63003 10.8333,38.63003c-6.51761,6.26544 -24.90594,17.29966 -24.90594,17.29966z" fill="#784451" stroke="none" stroke-width="1"/><path d="M185.09528,161.56874c1.36544,-24.0838 16.37912,-39.2451 16.37912,-39.2451c4.36899,-0.66222 38.85761,3.18807 38.85761,42.33886c0,39.15284 -55.23672,68.08128 -55.23672,68.08128c0,-11.57138 -0.9841,-53.80363 0,-71.17505z" fill="none" stroke="#362f52" stroke-width="0.5"/><path d="M184.7898,170.19192c31.51581,5.45971 25.88184,44.20865 25.10891,45.60074" fill="none" stroke="#362f52" stroke-width="0.5"/><path d="M187.09834,170.9956c0,0 0.5351,1.82674 0.9431,4.64372c0.18247,1.41054 0.40389,3.05891 0.4859,4.84054c0.10661,1.77753 0.08816,3.68217 0.00205,5.58272c-0.08816,0.94925 -0.12916,1.90054 -0.25628,2.83134c-0.12711,0.92874 -0.22962,1.84724 -0.42439,2.72268c-0.17837,0.87544 -0.32803,1.72628 -0.58021,2.51151c-0.23782,0.78523 -0.40799,1.53971 -0.66427,2.21013c-0.23987,0.67452 -0.48385,1.28343 -0.69707,1.82264c-0.22552,0.5351 -0.4736,0.98 -0.64992,1.35519c-0.38134,0.73808 -0.59866,1.16042 -0.59866,1.16042c0,0 0.14556,-0.45105 0.40184,-1.24038c0.12506,-0.39159 0.31163,-0.85699 0.46335,-1.40849c0.13941,-0.55766 0.29523,-1.18502 0.49,-1.85749c0.19887,-0.67452 0.30548,-1.4331 0.4777,-2.21628c0.18452,-0.78113 0.25628,-1.63197 0.41004,-2.491c0.16402,-0.86109 0.19887,-1.76933 0.32188,-2.67962c0.11686,-0.91234 0.14146,-1.84929 0.21732,-2.78008c0.05126,-0.93284 0.08816,-1.86774 0.11276,-2.78828c-0.0123,-0.92259 0.04715,-1.82879 0.01435,-2.70833c-0.01025,-1.75498 -0.04921,-3.39925 -0.13531,-4.80774c-0.09226,-1.40644 -0.13941,-2.58531 -0.22347,-3.40745c-0.07176,-0.82418 -0.11071,-1.29573 -0.11071,-1.29573" fill="#362f52" stroke="none" stroke-width="1"/><path d="M193.24076,172.79158c0,0 0.59661,2.70218 0.87339,6.83745c0.05126,1.03331 0.12916,2.15477 0.13736,3.34184c0.0369,1.18707 0.03485,2.43975 -0.02255,3.73548c-0.0164,1.29778 -0.15582,2.63452 -0.25628,3.99176c-0.14967,1.35519 -0.33008,2.73088 -0.53305,4.10042c-0.28703,1.35929 -0.4818,2.73293 -0.84469,4.05326c-0.35674,1.32033 -0.65197,2.63452 -1.11736,3.85439c-0.43464,1.23013 -0.81188,2.43155 -1.35109,3.50381c-0.24808,0.54331 -0.49,1.07226 -0.72372,1.58276c-0.22142,0.51665 -0.45925,1.00255 -0.73397,1.4495c-0.51255,0.90824 -1.00255,1.73038 -1.43515,2.4541c-0.4654,0.70527 -0.93695,1.28138 -1.28958,1.77343c-0.73397,0.9636 -1.15427,1.51305 -1.15427,1.51305c0,0 0.35469,-0.59251 0.9759,-1.62992c0.30753,-0.5187 0.71962,-1.12351 1.11736,-1.85954c0.36084,-0.75653 0.76883,-1.60736 1.23423,-2.51971c0.24603,-0.45105 0.45515,-0.9431 0.64377,-1.4618c0.20297,-0.5146 0.41004,-1.04766 0.62531,-1.59301c0.47155,-1.07636 0.76883,-2.28393 1.17272,-3.49561c0.43259,-1.20552 0.65812,-2.51356 1.01075,-3.80724c0.34444,-1.29778 0.5187,-2.65707 0.79343,-3.99176c0.21322,-1.34494 0.40184,-2.69807 0.56176,-4.03276c0.10456,-1.33879 0.29933,-2.65092 0.34444,-3.9323c0.08201,-1.27933 0.16402,-2.51561 0.18657,-3.69243c0.05946,-1.17682 0.03895,-2.28803 0.0451,-3.31519c-0.0287,-2.05636 -0.05126,-3.77238 -0.13736,-4.97176c-0.06151,-1.20142 -0.12301,-1.88824 -0.12301,-1.88824" fill="#362f52" stroke="none" stroke-width="1"/><path d="M200.83678,178.06882c0,0 0.09021,0.83238 0.12711,2.29828c0.03485,1.46385 0.06971,3.56121 -0.07381,6.07272c-0.07996,1.25473 -0.15787,2.61607 -0.31573,4.04916c-0.12096,1.43925 -0.31983,2.9482 -0.56586,4.50226c-0.21937,1.56021 -0.58431,3.15117 -0.87954,4.77904c-0.39774,1.60736 -0.74218,3.25368 -1.20962,4.87335c-0.52485,1.59916 -0.9472,3.23318 -1.58071,4.77084c-0.59046,1.54996 -1.13582,3.08966 -1.83904,4.51251c-0.64582,1.44335 -1.28958,2.82929 -2.05226,4.06966c-0.74218,1.24858 -1.34494,2.48075 -2.11172,3.49766c-0.71552,1.04561 -1.39004,1.99075 -1.9887,2.82519c-0.64582,0.79958 -1.25473,1.46385 -1.73038,2.02561c-0.9759,1.10301 -1.53356,1.73448 -1.53356,1.73448c0,0 0.4982,-0.67862 1.36749,-1.86569c0.43259,-0.59251 0.9841,-1.29163 1.56636,-2.12607c0.52895,-0.87339 1.12556,-1.85544 1.79393,-2.9113c0.71347,-1.03125 1.25473,-2.28393 1.9313,-3.54276c0.69707,-1.25268 1.25473,-2.65502 1.88824,-4.07787c0.67247,-1.41054 1.18707,-2.93795 1.74678,-4.47561c0.60481,-1.52331 0.9923,-3.14502 1.4905,-4.72983c0.4859,-1.58891 0.85289,-3.21268 1.26703,-4.79544c0.31573,-1.60531 0.70117,-3.17372 0.94105,-4.71548c0.24808,-1.53766 0.53305,-3.02201 0.71142,-4.44075c0.22142,-1.41669 0.35674,-2.76163 0.49205,-4.00611c0.24192,-2.4869 0.42029,-4.56787 0.4736,-6.02761c0.07791,-1.45975 0.08406,-2.29623 0.08406,-2.29623" fill="#362f52" stroke="none" stroke-width="1"/><path d="M207.85465,189.1912c0,0 0.05331,0.78523 0,2.16092c-0.0287,0.68682 -0.07996,1.52125 -0.16607,2.47665c-0.09636,0.9554 -0.20092,2.03381 -0.41824,3.19628c-0.16812,1.17272 -0.46335,2.41925 -0.74218,3.74778c-0.33213,1.31418 -0.66837,2.71038 -1.14402,4.11477c-0.48795,1.40029 -0.9554,2.86004 -1.58891,4.28699c-0.30548,0.71757 -0.58636,1.45155 -0.91644,2.16912c-0.34854,0.70732 -0.69912,1.41874 -1.05176,2.13017c-0.67657,1.4372 -1.56636,2.75753 -2.35979,4.10247c-0.38544,0.67862 -0.82828,1.31418 -1.28138,1.93335c-0.4449,0.62531 -0.88364,1.24038 -1.31623,1.84724c-0.41619,0.61711 -0.87134,1.18912 -1.35519,1.72218c-0.46745,0.54126 -0.92669,1.07226 -1.37364,1.58891c-0.85904,1.05996 -1.81238,1.93745 -2.66117,2.77393c-0.86109,0.82008 -1.60121,1.62377 -2.37414,2.21218c-0.75448,0.60276 -1.41259,1.13172 -1.9559,1.56431c-1.09071,0.85494 -1.71192,1.34084 -1.71192,1.34084c0,0 0.57201,-0.54331 1.57251,-1.4987c0.50435,-0.47155 1.11736,-1.04356 1.81854,-1.69962c0.71142,-0.63967 1.38594,-1.49665 2.20807,-2.33929c0.79753,-0.86519 1.69552,-1.77138 2.4951,-2.86004c0.41414,-0.5269 0.84059,-1.07021 1.27728,-1.62582c0.44079,-0.55151 0.90004,-1.10711 1.29368,-1.72628c0.41414,-0.60276 0.83649,-1.21577 1.26498,-1.83699c0.43669,-0.61301 0.86314,-1.24653 1.23013,-1.92105c0.75858,-1.33469 1.61146,-2.64477 2.25728,-4.06556c0.35674,-0.69297 0.71347,-1.38594 1.06611,-2.07481c0.33418,-0.70117 0.62326,-1.41874 0.9349,-2.11992c0.64582,-1.39209 1.12761,-2.82519 1.62992,-4.19678c0.47155,-1.37979 0.88774,-2.73088 1.27318,-4.01431c0.33828,-1.29573 0.68887,-2.51561 0.90824,-3.66577c0.5105,-2.28598 0.81393,-4.21933 0.97795,-5.57862c0.16812,-1.35929 0.20912,-2.14452 0.20912,-2.14452" fill="#362f52" stroke="none" stroke-width="1"/></g></g></g></svg>