<svg version="1.1" xmlns="http://www.w3.org/2000/svg" xmlns:xlink="http://www.w3.org/1999/xlink" width="43.7144" height="79.57315" viewBox="0,0,43.7144,79.57315"><g transform="translate(-217.54745,-134.77468)"><g data-paper-data="{&quot;isPaintingLayer&quot;:true}" fill-rule="nonzero" stroke="none" stroke-width="0.84066" stroke-linecap="butt" stroke-linejoin="miter" stroke-miterlimit="10" stroke-dasharray="" stroke-dashoffset="0" style="mix-blend-mode: normal"><path d="M225.53375,135.95613c6.6942,-1.5544 11.5482,-1.3644 14.7116,-0.6305c9.3649,2.6918 19.1578,5.5013 21.0165,15.9726c0,2.242 0,4.4832 0,6.7253c-5.4492,9.4019 -10.135,19.5689 -22.6979,21.8572c2.0655,7.4625 2.1782,16.8771 4.2033,24.3791c-1.4644,3.6149 -5.455,1.9882 -3.3626,7.566c-4.7573,-0.2741 -7.8131,1.1542 -10.9286,2.522c-1.1206,0 -2.242,0 -3.3626,0c-3.5888,-19.6698 -4.2698,-42.2466 -7.566,-62.209c0,-2.5219 0,-5.0439 0,-7.5659c3.4619,0.6599 5.3567,0.2858 7.566,-0.8407c1.6367,-1.7225 -1.4998,-6.0216 0.4203,-7.7761zM257.05855,160.54553c6.2486,-16.5274 -13.3817,-25.7907 -29.4232,-21.0166c-0.5573,22.9963 0.496,44.7652 5.8847,64.7309c0.3623,-1.8797 4.1427,-0.3404 5.8846,-0.8406c-1.7015,-11.1657 -3.4929,-22.0405 -3.3626,-32.7858c10.5065,-0.1967 18.5349,-3.5232 21.0165,-10.0879z" fill="#000000"/><path d="M236.04205,170.63343c-0.1303,10.7453 1.6611,21.6201 3.3626,32.7858c-1.7419,0.5002 -5.5223,-1.0391 -5.8846,0.8406c-5.3887,-19.9657 -6.442,-41.7346 -5.8847,-64.7309c16.0415,-4.7741 35.6718,4.4892 29.4232,21.0166c-2.4816,6.5647 -10.51,9.8912 -21.0165,10.0879zM236.04205,163.90813c3.429,0.9205 10.5141,-1.0601 14.2912,-2.522c6.3562,-10.2283 -1.5241,-19.194 -15.1319,-16.8132c0.4909,6.6555 0.8978,14.4888 0.8407,19.3352z" fill="#ff9400"/><path d="M235.20135,144.57293c13.6078,-2.3808 21.4881,6.5849 15.1319,16.8132c-3.7771,1.4619 -10.8622,3.4425 -14.2912,2.522c0.0571,-4.8464 -0.3498,-12.6797 -0.8407,-19.3352zM238.56395,160.54553c1.7234,1.1096 6.4378,-0.4069 8.4066,-1.6814c-0.2219,-4.5614 -5.318,-8.6672 -9.2472,-6.7253c1.9167,1.166 0.3135,5.8511 0.8406,8.4067z" fill="#000000"/></g></g></svg>