<svg version="1.1" xmlns="http://www.w3.org/2000/svg" xmlns:xlink="http://www.w3.org/1999/xlink" width="34.1505" height="79.4199" viewBox="0,0,34.1505,79.4199"><g transform="translate(-222.92475,-140.29005)"><g data-paper-data="{&quot;isPaintingLayer&quot;:true}" fill-rule="nonzero" stroke="none" stroke-linecap="butt" stroke-linejoin="miter" stroke-miterlimit="10" stroke-dasharray="" stroke-dashoffset="0" style="mix-blend-mode: normal"><path d="M244.36815,140.29005c0.7942,0 1.5884,0 2.3826,0c0.301,5.2592 3.0425,8.0762 3.9709,12.7072c-1.5415,5.5451 -5.3417,6.2837 -8.7361,11.1188c5.7897,6.3877 14.255,10.1006 15.0897,21.4433c0,1.0587 0,2.1182 0,3.1768c-3.2744,13.4037 -7.9523,25.404 -19.0607,30.9738c-1.324,0 -2.6471,0 -3.971,0c-3.9067,-4.0354 -7.0851,-8.799 -9.5304,-14.2956c5.063,-5.0876 13.4799,-7.7903 13.5014,-15.0898c0.0262,-8.8378 -14.4942,-11.604 -15.0898,-21.4433c0,-1.324 0,-2.6471 0,-3.971c3.8797,-11.4754 9.4192,-21.2901 21.4434,-24.6202z" fill="#000000" stroke-width="0.5"/><path d="M243.23023,145.54371c2.33847,2.1653 2.55722,6.49417 3.93417,9.64126c-4.77145,0.28923 -10.62717,3.71269 -10.22899,9.64126c0.53035,7.90257 13.9446,10.08071 16.52381,18.47897c4.14906,13.50984 -7.15797,22.19096 -14.95011,30.53065c-3.75256,-0.98907 -4.62829,-4.91542 -5.50797,-8.83782c6.91087,-4.1136 12.03483,-12.44368 9.44224,-20.08595c-1.28104,-3.77531 -6.83696,-4.95153 -10.22909,-8.83782c-5.03033,-5.76215 -3.3733,-9.43954 -3.14741,-19.28241c3.29533,-5.20545 8.92051,-8.03114 14.16335,-11.24813z" fill="#ff9400" stroke-width="0.7942"/></g></g></svg>