<svg version="1.1" xmlns="http://www.w3.org/2000/svg" xmlns:xlink="http://www.w3.org/1999/xlink" width="60.72433" height="79.7559" viewBox="0,0,60.72433,79.7559"><g transform="translate(-209.63783,-140.12205)"><g data-paper-data="{&quot;isPaintingLayer&quot;:true}" fill-rule="nonzero" stroke="none" stroke-width="0.83856" stroke-linecap="butt" stroke-linejoin="miter" stroke-miterlimit="10" stroke-dasharray="" stroke-dashoffset="0" style="mix-blend-mode: normal"><path d="M266.65983,142.73055c-0.1895,4.3823 0.0143,8.3713 0.8386,11.7398c-5.0482,1.6612 -12.9256,0.4914 -19.2869,0.8386c-0.7304,14.1297 0.9954,33.2689 1.6771,52.8291c-4.0879,-2.2884 -10.0274,2.5652 -13.4169,0.8386c-0.2113,-18.6185 -0.2834,-29.8468 -0.8386,-51.1521c-5.0246,-3.4196 -10.8794,1.5539 -17.6097,-1.6771c-1.1572,-4.2297 0.0512,-10.1642 -0.8385,-12.5784c14.2848,-0.545 34.759,-1.3568 49.4749,-0.8385z" fill="#ff9400"/><path d="M214.66923,140.21485c9.2786,0.0763 13.8446,0.5207 17.6097,0c12.5708,0 25.1668,-0.2088 37.7351,0c0.7833,0.6809 0,1.6771 0,2.5157c-0.2792,0 -0.5593,0 -0.8385,0c0,5.0313 0,10.0627 0,15.094c-1.9446,-0.2675 -3.2192,0.135 -4.1928,0.8386c-0.5191,2.2758 1.065,6.6548 -0.8386,7.547c-3.7374,-0.7128 -7.9336,-0.2088 -13.4169,-0.8385c0.888,13.0479 0.3019,31.6933 3.3542,46.1207c-2.067,-0.1107 -4.0401,-0.1266 -5.0313,0.8385c-0.878,2.3723 1.3836,5.7526 0,5.8699c-5.392,0.1979 -11.9763,-0.7957 -15.0941,1.6772c-1.3979,0 -2.7949,0 -4.1928,0c-4.4133,-15.6383 0.8956,-37.5532 -2.5156,-52.8292c-4.3916,-2.4327 -9.2653,-0.9702 -15.9327,-0.8386c0.9711,-4.5198 -0.5593,-13.2744 -1.6771,-18.4483c0,-0.5593 0,-1.1178 0,-1.6771c1.3979,0 2.7949,0 4.1928,0c0.0084,-2.2272 -0.5945,-4.9131 0.8386,-5.8699zM217.18493,143.56905c0.8897,2.4142 -0.3187,8.3487 0.8385,12.5784c6.7303,3.231 12.5851,-1.7425 17.6097,1.6771c0.5552,21.3053 0.6273,32.5336 0.8386,51.1521c3.3895,1.7266 9.329,-3.127 13.4169,-0.8386c-0.6817,-19.5602 -2.4075,-38.6994 -1.6771,-52.8291c6.3613,-0.3472 14.2387,0.8226 19.2869,-0.8386c-0.8243,-3.3685 -1.0281,-7.3575 -0.8386,-11.7398c-14.7159,-0.5183 -35.1901,0.2935 -49.4749,0.8385z" fill="#000000"/></g></g></svg>