<svg version="1.1" xmlns="http://www.w3.org/2000/svg" xmlns:xlink="http://www.w3.org/1999/xlink" width="68.80256" height="79.5784" viewBox="0,0,68.80256,79.5784"><g transform="translate(-205.59872,-140.2108)"><g data-paper-data="{&quot;isPaintingLayer&quot;:true}" fill-rule="nonzero" stroke="none" stroke-width="1.00732" stroke-linecap="butt" stroke-linejoin="miter" stroke-miterlimit="10" stroke-dasharray="" stroke-dashoffset="0" style="mix-blend-mode: normal"><path d="M255.26218,140.2108c0.6719,0 1.3428,0 2.0147,0c4.5289,1.8505 11.9196,0.8402 17.1244,2.0147c0,1.0073 0,2.0146 0,3.022c-6.1195,27.1221 -16.8394,49.6437 -26.1903,73.5344c-5.506,-0.2891 -9.4165,-1.23 -14.1025,1.0073c-1.0073,0 -2.0146,0 -3.022,0c-4.2005,-9.5071 -7.3655,-18.8228 -11.0805,-28.205c-1.8414,-4.6538 -3.572,-9.7186 -5.7921,-14.5054c-2.482,-5.2905 -6.051,-10.2314 -8.3104,-15.7142c-0.5822,-1.4143 -0.1843,-3.0885 0,-4.6841c0.2418,-1.0123 1.0778,-1.789 1.2592,-3.0219c0.2014,-1.3206 -0.3234,-2.475 0,-4.0293c0.281,-1.2239 0.1732,-2.7379 1.7628,-3.3745c6.056,-2.3672 12.1422,-3.303 19.1391,-4.0293c5.7598,8.3426 5.2259,22.979 13.0951,29.2123c0.5097,-9.2281 3.0492,-16.4254 3.022,-26.1903c3.4209,-0.273 8.1663,0.7796 10.0732,-1.0074c-0.0755,-1.7547 0.2256,-3.1327 1.0073,-4.0293zM245.18898,191.5842c-9.1434,-12.3457 -11.9881,-30.9912 -19.1391,-45.3294c-4.7727,-0.7434 -6.9253,1.1332 -11.0805,1.0073c0,3.3574 0,6.7158 0,10.0732c10.9163,13.2594 14.8137,33.5377 23.1684,49.3587c4.2912,-0.0745 7.0452,-1.6852 12.0878,-1.0073c6.0913,-21.3895 19.1734,-39.3651 18.1318,-60.4392c-4.0293,0 -8.0586,0 -12.0879,0c-1.7839,15.7242 -7.714,33.0481 -11.0805,46.3367z" fill="#000000"/><path d="M256.26948,145.2475c4.0293,0 8.0586,0 12.0879,0c1.0416,21.0741 -12.0405,39.0497 -18.1318,60.4392c-5.0426,-0.6779 -7.7966,0.9328 -12.0878,1.0073c-8.3547,-15.821 -12.2521,-36.0993 -23.1684,-49.3587c0,-3.3574 0,-6.7158 0,-10.0732c4.1552,0.1259 6.3078,-1.7507 11.0805,-1.0073c7.151,14.3382 9.9957,32.9837 19.1391,45.3294c3.3665,-13.2886 9.2966,-30.6125 11.0805,-46.3367z" fill="#ff9400"/></g></g></svg>