<svg version="1.1" xmlns="http://www.w3.org/2000/svg" xmlns:xlink="http://www.w3.org/1999/xlink" width="60.5" height="97.09551" viewBox="0,0,60.5,97.09551"><g transform="translate(-212.5308,-125.08719)"><g data-paper-data="{&quot;isPaintingLayer&quot;:true}" fill-rule="nonzero" stroke="none" stroke-linecap="butt" stroke-linejoin="miter" stroke-miterlimit="10" stroke-dasharray="" stroke-dashoffset="0" style="mix-blend-mode: normal"><path d="M245.28171,131.4362c0.98539,-0.35857 1.98822,-0.67128 2.99958,-0.94567c0.42209,-0.11452 1.72818,-0.2179 1.29112,-0.23347c-0.7613,-0.02714 -1.30698,-0.85829 -2.05579,-0.99829c-0.96486,-0.1804 -1.40374,1.37244 -2.10858,2.05561c-0.04286,0.04154 -0.08495,0.08213 -0.12634,0.12182zM236.19176,136.73457c-0.90043,0.38012 -1.81197,0.74126 -2.74372,1.08013c0.12108,0.06961 0.2449,0.13449 0.37214,0.19354c0.80474,0.37342 1.62924,-0.73374 2.34668,-1.25557c0.00829,-0.00603 0.01658,-0.01206 0.02488,-0.01809zM228.24135,135.60967c0.42745,-0.79985 1.3667,-1.05069 1.3667,-1.05069l2.04137,-0.54358c2.68048,-0.9427 5.1631,-2.099 7.71107,-3.35014c2.60807,-1.71889 5.11038,-5.63729 8.5223,-5.57741c0.99946,0.01754 1.7793,0.91563 2.63137,1.43831c2.75188,1.68806 4.63405,2.10681 2.16635,6.21387c-0.86977,1.4476 -3.66891,1.77891 -5.1162,2.26092c-3.43944,1.14545 -6.04115,3.15832 -8.99168,5.17849c-1.85498,1.27008 -3.34832,2.47276 -5.90136,1.85501c-1.63694,-0.39608 -2.73519,-1.99286 -4.24295,-2.74327c0,0 -1.86749,-0.94611 -0.92138,-2.81359c0.20966,-0.41385 0.46457,-0.68952 0.73439,-0.86794z" fill="#000000" stroke-width="0.5"/><path d="M240.45381,142.9115c0.6209,0 1.2408,0 1.8616,0c-0.4198,1.52 5.0727,1.52 4.6538,0c0.31,0 0.6208,0 0.9308,0c0.0251,0.9057 1.1393,0.7223 1.8615,0.9308c-0.4635,7.9813 5.391,13.3147 3.7231,19.5462c8.2494,13.4682 9.2528,34.1834 19.5462,45.6076c0,0.6209 0,1.2408 0,1.8616c-5.3036,-0.2066 -0.5166,4.8363 -2.7923,6.5154c-2.5513,3.0333 -9.9872,1.182 -12.1,4.6538c-0.9308,0 -1.8616,0 -2.7924,0c-3.7593,-9.0759 -3.1497,-17.7423 -8.3769,-26.0615c-12.8371,-2.2879 -12.8074,8.2894 -14.8923,16.7538c-2.2003,2.1436 -4.3225,4.3644 -4.6538,8.3769c-5.1463,-0.4393 -10.608,-0.5612 -14.8923,-1.8615c0,-0.6208 0,-1.2407 0,-1.8615c5.6181,-21.995 11.2018,-44.0245 15.823,-67.0154c8.9429,2.4274 4.7041,-8.3267 12.1,-7.4462zM236.73081,147.5654c-4.4715,21.5901 -10.7895,41.3336 -14.8923,63.2923c3.6002,-0.498 4.544,1.6614 8.3769,0.9308c1.2602,-8.0475 3.7286,-14.8868 4.6538,-23.2693c6.2641,0.0587 10.0803,-2.3297 15.8231,-2.7923c2.8314,8.9577 7.0953,16.4839 10.2385,25.1308c3.4513,0.659 3.9948,-1.5898 7.4461,-0.9308c-3.441,-8.8442 -8.6161,-19.2334 -9.3077,-27.9231c-6.412,-9.101 -8.1172,-22.909 -11.1692,-35.3692c-5.3808,0.5659 -8.1387,-1.9844 -11.1692,0.9308z" fill="#000000" stroke-width="0.93077"/><path d="M242.31541,142.9115c1.5516,0 3.1022,0 4.6538,0c0.4189,1.52 -5.0736,1.52 -4.6538,0z" fill="none" stroke-width="0.93077"/><path d="M247.90001,142.9115c8.3769,0 16.7538,0 25.1308,0c0,22.0285 0,44.0561 0,66.0846c-10.2934,-11.4242 -11.2968,-32.1394 -19.5462,-45.6076c1.6679,-6.2315 -4.1866,-11.5649 -3.7231,-19.5462c-0.7222,-0.2085 -1.8364,-0.0251 -1.8615,-0.9308z" fill="none" stroke-width="0.93077"/><path d="M247.90001,146.6346c3.052,12.4602 4.7572,26.2682 11.1692,35.3692c0.6916,8.6897 5.8667,19.0789 9.3077,27.9231c-3.4513,-0.659 -3.9948,1.5898 -7.4461,0.9308c-3.1432,-8.6469 -7.4071,-16.1731 -10.2385,-25.1308c-5.7428,0.4626 -9.559,2.851 -15.8231,2.7923c-0.9252,8.3825 -3.3936,15.2218 -4.6538,23.2693c-3.8329,0.7306 -4.7767,-1.4288 -8.3769,-0.9308c4.1028,-21.9587 10.4208,-41.7022 14.8923,-63.2923c3.0305,-2.9152 5.7884,-0.3649 11.1692,-0.9308zM237.66151,182.9346c5.2626,-1.3794 8.2076,-1.923 13.0308,-0.9308c-1.1281,-8.8004 -4.9163,-14.9397 -6.5154,-23.2692c-0.2057,-0.7251 -0.78,-1.0825 -1.8615,-0.9308c-2.7551,6.6476 -4.9247,18.5251 -4.6539,25.1308z" fill="#ff9400" stroke-width="0.93077"/><path d="M242.31541,157.8038c1.0815,-0.1517 1.6558,0.2057 1.8615,0.9308c1.5991,8.3295 5.3873,14.4688 6.5154,23.2692c-4.8232,-0.9922 -7.7682,-0.4486 -13.0308,0.9308c-0.2708,-6.6057 1.8988,-18.4832 4.6539,-25.1308zM242.31541,178.2808c0.1489,-2.9413 0.0326,-5.6172 -1.8616,-6.5154c0.6786,2.1138 -1.6772,7.2618 1.8616,6.5154z" fill="#000000" stroke-width="0.93077"/><path d="M240.45381,171.7654c1.8942,0.8982 2.0105,3.5741 1.8616,6.5154c-3.5388,0.7464 -1.183,-4.4016 -1.8616,-6.5154z" fill="none" stroke-width="0.93077"/><path d="M255.34611,222.0269c-13.9634,-0.618 -30.4026,1.2379 -42.8153,-0.9308c0,-0.6208 0,-1.2407 0,-1.8615c4.2843,1.3003 9.746,1.4222 14.8923,1.8615c0.3313,-4.0125 2.4535,-6.2333 4.6538,-8.3769c2.0849,-8.4644 2.0552,-19.0417 14.8923,-16.7538c5.2272,8.3192 4.6176,16.9856 8.3769,26.0615z" fill="none" stroke-width="0.93077"/><path d="M273.03081,210.8577c0,3.7231 0,7.4461 0,11.1692c-4.9638,0 -9.9286,0 -14.8923,0c2.1128,-3.4718 9.5487,-1.6205 12.1,-4.6538c2.2757,-1.6791 -2.5113,-6.722 2.7923,-6.5154z" fill="none" stroke-width="0.93077"/><path d="M248.53428,128.78757c0.785,1.75429 0.04058,2.26974 0.04058,2.26974l-3.32731,1.26769c-4.77913,2.38577 -6.85231,5.01878 -11.05441,8.31877c0,0 -1.51152,1.18703 -2.69857,-0.32449c-1.18703,-1.51152 0.32449,-2.69857 0.32449,-2.69857c4.41501,-3.46721 9.1458,-7.04741 14.14489,-9.60385l1.04092,-0.46816c0,0 0.74441,-0.51544 1.52941,1.23885z" fill="#ff9400" stroke-width="0.5"/></g></g></svg>