<svg version="1.1" xmlns="http://www.w3.org/2000/svg" xmlns:xlink="http://www.w3.org/1999/xlink" width="86.09691" height="79.32261" viewBox="0,0,86.09691,79.32261"><g transform="translate(-205.06603,-142.86009)"><g data-paper-data="{&quot;isPaintingLayer&quot;:true}" fill-rule="nonzero" stroke="none" stroke-linecap="butt" stroke-linejoin="miter" stroke-miterlimit="10" stroke-dasharray="" stroke-dashoffset="0" style="mix-blend-mode: normal"><path d="M232.98903,171.7654c1.8942,0.8982 2.0105,3.5741 1.8616,6.5154c-3.5388,0.7464 -1.183,-4.4016 -1.8616,-6.5154z" fill="none" stroke-width="0.93077"/><path d="M247.88133,222.0269c-13.9634,-0.618 -30.4026,1.2379 -42.8153,-0.9308c0,-0.6208 0,-1.2407 0,-1.8615c4.2843,1.3003 9.746,1.4222 14.8923,1.8615c0.3313,-4.0125 2.4535,-6.2333 4.6538,-8.3769c2.0849,-8.4644 2.0552,-19.0417 14.8923,-16.7538c5.2272,8.3192 4.6176,16.9856 8.3769,26.0615z" fill="none" stroke-width="0.93077"/><path d="M265.56603,210.8577c0,3.7231 0,7.4461 0,11.1692c-4.9638,0 -9.9286,0 -14.8923,0c2.1128,-3.4718 9.5487,-1.6205 12.1,-4.6538c2.2757,-1.6791 -2.5113,-6.722 2.7923,-6.5154z" fill="none" stroke-width="0.93077"/><path d="M255.71138,177.45518c8.76679,0.41746 17.35549,0.06164 26.15197,1.0008c2.60246,0.27785 7.28711,1.30387 7.04468,4.45549c-0.17854,2.32106 -3.41343,3.00946 -5.10073,3.83469c-5.8677,2.8698 -15.1472,1.76279 -21.32671,1.35135c-2.33258,-0.15531 -6.13579,0.36372 -8.11883,-0.72236c-2.1646,-1.18552 -5.77551,-11.12284 0.06426,-9.66289z" fill="#000000" stroke-width="0.5"/><path d="M262.15352,202.77021c0.07869,-0.01501 0.17944,-0.02203 0.29967,-0.02202c0.06417,-0.00493 0.12901,-0.00745 0.19444,-0.00745c0.18929,0 0.37367,0.02104 0.55092,0.0609c2.33501,0.27135 7.29262,1.48192 8.95982,1.43815c7.84872,-0.20606 15.06525,-4.90749 18.3028,5.03974c0.28356,0.87122 0.908,3.13219 0.63368,4.22948c-1.66464,6.65856 -10.84028,3.31982 -15.38018,3.22609c-3.64245,-0.0752 -7.28885,-0.1317 -10.9297,0c-0.93928,0.03397 -1.39923,1.34103 -2.28724,1.64897c-0.44645,0.15482 -1.84149,-0.95589 -2.1875,-1.25c-1.28833,-1.09508 0.37339,-5.86189 1.59025,-6.99482c0.80133,-0.74606 1.51925,-1.14993 2.53931,-1.47753c0.08438,-0.0271 0.29476,0.01612 0.25792,-0.06448c-0.39875,-0.87222 -3.67626,-0.41951 -3.93526,-1.71448c-0.3829,-0.43924 -0.61481,-1.01355 -0.61481,-1.64202c0,-1.10331 0.7147,-2.03968 1.70639,-2.37141c0.09274,-0.04492 0.19217,-0.07865 0.2995,-0.09912z" fill="#000000" stroke-width="0.5"/><path d="M232.98903,142.9115c0.6209,0 1.2408,0 1.8616,0c-0.4198,1.52 5.0727,1.52 4.6538,0c0.31,0 0.6208,0 0.9308,0c0.0251,0.9057 1.1393,0.7223 1.8615,0.9308c-0.4635,7.9813 5.391,13.3147 3.7231,19.5462c8.2494,13.4682 9.2528,34.1834 19.5462,45.6076c0,0.6209 0,1.2408 0,1.8616c-5.3036,-0.2066 -0.5166,4.8363 -2.7923,6.5154c-2.5513,3.0333 -9.9872,1.182 -12.1,4.6538c-0.9308,0 -1.8616,0 -2.7924,0c-3.7593,-9.0759 -3.1497,-17.7423 -8.3769,-26.0615c-12.8371,-2.2879 -12.8074,8.2894 -14.8923,16.7538c-2.2003,2.1436 -4.3225,4.3644 -4.6538,8.3769c-5.1463,-0.4393 -10.608,-0.5612 -14.8923,-1.8615c0,-0.6208 0,-1.2407 0,-1.8615c5.6181,-21.995 11.2018,-44.0245 15.823,-67.0154c8.9429,2.4274 4.7041,-8.3267 12.1,-7.4462zM229.26603,147.5654c-4.4715,21.5901 -10.7895,41.3336 -14.8923,63.2923c3.6002,-0.498 4.544,1.6614 8.3769,0.9308c1.2602,-8.0475 3.7286,-14.8868 4.6538,-23.2693c6.2641,0.0587 10.0803,-2.3297 15.8231,-2.7923c2.8314,8.9577 7.0953,16.4839 10.2385,25.1308c3.4513,0.659 3.9948,-1.5898 7.4461,-0.9308c-3.441,-8.8442 -8.6161,-19.2334 -9.3077,-27.9231c-6.412,-9.101 -8.1172,-22.909 -11.1692,-35.3692c-5.3808,0.5659 -8.1387,-1.9844 -11.1692,0.9308z" fill="#000000" stroke-width="0.93077"/><path d="M234.85063,142.9115c1.5516,0 3.1022,0 4.6538,0c0.4189,1.52 -5.0736,1.52 -4.6538,0z" fill="none" stroke-width="0.93077"/><path d="M240.43523,142.9115c8.3769,0 16.7538,0 25.1308,0c0,22.0285 0,44.0561 0,66.0846c-10.2934,-11.4242 -11.2968,-32.1394 -19.5462,-45.6076c1.6679,-6.2315 -4.1866,-11.5649 -3.7231,-19.5462c-0.7222,-0.2085 -1.8364,-0.0251 -1.8615,-0.9308z" fill="none" stroke-width="0.93077"/><path d="M240.43523,146.6346c3.052,12.4602 4.7572,26.2682 11.1692,35.3692c0.6916,8.6897 5.8667,19.0789 9.3077,27.9231c-3.4513,-0.659 -3.9948,1.5898 -7.4461,0.9308c-3.1432,-8.6469 -7.4071,-16.1731 -10.2385,-25.1308c-5.7428,0.4626 -9.559,2.851 -15.8231,2.7923c-0.9252,8.3825 -3.3936,15.2218 -4.6538,23.2693c-3.8329,0.7306 -4.7767,-1.4288 -8.3769,-0.9308c4.1028,-21.9587 10.4208,-41.7022 14.8923,-63.2923c3.0305,-2.9152 5.7884,-0.3649 11.1692,-0.9308zM230.19673,182.9346c5.2626,-1.3794 8.2076,-1.923 13.0308,-0.9308c-1.1281,-8.8004 -4.9163,-14.9397 -6.5154,-23.2692c-0.2057,-0.7251 -0.78,-1.0825 -1.8615,-0.9308c-2.7551,6.6476 -4.9247,18.5251 -4.6539,25.1308z" fill="#ff9400" stroke-width="0.93077"/><path d="M234.85063,157.8038c1.0815,-0.1517 1.6558,0.2057 1.8615,0.9308c1.5991,8.3295 5.3873,14.4688 6.5154,23.2692c-4.8232,-0.9922 -7.7682,-0.4486 -13.0308,0.9308c-0.2708,-6.6057 1.8988,-18.4832 4.6539,-25.1308zM234.85063,178.2808c0.1489,-2.9413 0.0326,-5.6172 -1.8616,-6.5154c0.6786,2.1138 -1.6772,7.2618 1.8616,6.5154z" fill="#000000" stroke-width="0.93077"/><path d="M243.12885,153.75182c-0.68605,-0.15896 -1.29419,-2.72983 -1.34502,-3.36995c-0.07544,-0.95018 0.10956,-1.61468 0.47928,-2.06401c-0.87969,-0.33381 -1.5387,-0.75825 -1.63174,-1.29905c-0.3568,-0.4322 -0.57115,-0.98634 -0.57115,-1.59055c0,-1.12714 0.74591,-2.08005 1.77104,-2.39205c0.09372,-0.04238 0.19393,-0.07337 0.30178,-0.09092c0.19819,-0.03226 0.41763,-0.03192 0.65018,-0.00722c0.08298,0.00734 0.1648,0.01873 0.24525,0.03397c1.27803,0.21537 2.84643,1.03787 3.48513,1.23365c2.53621,0.77743 5.7827,1.03271 8.42629,1.28505c3.91625,0.37382 7.78195,0.96822 11.74491,0.45494c1.84583,-0.23907 6.6428,-1.68577 8.15595,-0.45634c3.07623,2.49945 2.83068,9.16129 -0.76268,11.1633c-2.93453,1.63495 -15.35146,-0.1182 -18.68241,-0.19387c-0.98206,-0.02231 -11.44419,1.04894 -12.20903,-1.24559c-0.17952,-0.53854 -0.17006,-1.02378 -0.02563,-1.45408c-0.01074,-0.00238 -0.02146,-0.00481 -0.03216,-0.00729z" fill="#000000" stroke-width="0.5"/><path d="M241.56788,146.67591c9.63557,0.06955 16.33614,0.43408 25.18809,1.6746c1.24537,0.17452 5.97952,0.2933 6.58574,1.0364c4.80826,5.894 -6.82641,5.00697 -9.49483,4.98731c-2.43424,-0.01793 -4.88601,-0.72779 -7.33395,-0.74953c-3.33803,-0.02965 -15.61841,2.83455 -17.65739,-2.68269c-0.54654,-0.4586 -0.89399,-1.14672 -0.89399,-1.91599c0,-1.38071 1.11929,-2.5 2.5,-2.5c0.30866,0 0.60426,0.05594 0.87721,0.15823c0.07611,-0.00604 0.15251,-0.00888 0.22913,-0.00833z" fill="#ff9400" stroke-width="0.5"/><path d="M257.12577,179.39905c6.03782,0.42909 12.13972,0.12072 18.14438,0.87635c1.95915,0.24654 7.77808,-1.32881 8.54108,1.7232c0.60438,2.41751 -1.8694,3.37377 -3.62461,3.40615c-7.79329,0.14377 -15.63542,-0.89244 -23.41309,-1.04934c-1.77026,-0.03571 -3.54152,-0.03212 -5.31185,0c-0.11462,0.00208 -0.27531,0.03056 -0.45743,0.06486c-0.13046,0.03496 -0.26513,0.05965 -0.40308,0.07311c-0.08087,0.00789 -0.16288,0.01193 -0.24583,0.01193c-1.38071,0 -2.5,-1.11929 -2.5,-2.5c0,-1.35784 1.08252,-2.46286 2.43162,-2.49908c1.79684,-0.7353 4.13972,-0.299 6.83881,-0.10718z" fill="#ff9400" stroke-width="0.5"/><path d="M258.70288,204.49954c1.66246,-0.53973 3.97189,0.46261 5.73217,0.48979c4.15177,0.06411 8.16599,0.37323 12.26723,0.44972c2.38133,0.04441 11.09672,-1.83411 11.09672,2.66006c0,7.8779 -16.74859,4.03019 -20.60031,3.98891c-3.81536,-0.04089 -7.63232,0.09389 -11.44674,0c-4.18806,-0.10308 -2.2107,-5 1.25539,-5c-0.00513,-0.06543 -0.00775,-0.13156 -0.00775,-0.19831c0,-0.99256 0.57843,-1.85002 1.41658,-2.25368c0.08751,-0.05649 0.18257,-0.10268 0.2867,-0.13648z" fill="#ff9400" stroke-width="0.5"/></g></g></svg>