<svg version="1.1" xmlns="http://www.w3.org/2000/svg" xmlns:xlink="http://www.w3.org/1999/xlink" width="40.4376" height="98.26892" viewBox="0,0,40.4376,98.26892"><g transform="translate(-221.5168,-123.58058)"><g data-paper-data="{&quot;isPaintingLayer&quot;:true}" fill-rule="nonzero" stroke="none" stroke-linecap="butt" stroke-linejoin="miter" stroke-miterlimit="10" stroke-dasharray="" stroke-dashoffset="0" style="mix-blend-mode: normal"><path d="M255.3715,146.6167c-0.9808,2.6642 -0.9808,3.9187 0,6.5828c-2.0924,1.3561 -4.5346,2.3614 -8.4637,1.8809c-1.2328,19.0997 2.7752,32.9604 4.7021,48.9013c4.0343,0.8868 8.5615,-0.1749 7.5233,7.5233c-7.4537,0.3667 -15.8845,0.4711 -23.5103,2.8212c0,-2.194 0,-4.3889 0,-6.5829c1.2545,-1.5667 5.3284,-0.3141 6.5829,-1.8808c-1.3081,-18.6192 -3.015,-31.6053 -3.7617,-49.8417c-2.082,-0.9602 -8.6141,0 -10.3445,-3.7617c2.1686,-8.6602 20.3646,-7.5007 27.2719,-5.6424z" fill="#ff9400" stroke-width="0.94041"/><path d="M247.8482,141.9146c3.1344,0 6.2698,0 9.4041,0c3.3874,6.4917 -2.0642,14.0074 -1.8808,19.7486c-2.572,1.5 -4.0108,-0.4673 -6.5828,1.8809c0.2943,14.4381 4.5826,24.8841 5.6424,38.5568c3.2331,-0.4119 5.2701,0.3724 7.5233,0.9404c0,4.0748 0,8.1505 0,12.2253c-0.6273,0 -1.2536,0 -1.8808,0c-1.9081,0.6 -0.6188,4.3964 -2.8213,4.702c-2.1874,0.0508 -12.9043,-1.2516 -15.0465,1.8809c-4.0748,0 -8.1505,0 -12.2253,0c-1.2527,-4.0767 -1.5865,-9.0722 -1.8809,-14.1062c2.1884,-1.8865 5.8494,-2.3002 6.5829,-5.6424c-2.3868,-12.263 -1.2235,-25.0864 -2.8212,-39.4973c-3.6375,-0.5031 -4.5911,1.6787 -8.4637,0.9405c-0.6263,-5.8447 0.3987,-7.9663 -1.8808,-11.285c0,-0.9404 0,-1.8808 0,-2.8212c0.6272,0 1.2535,0 1.8808,0c4.0005,0.8661 0.0621,-6.2076 3.7616,-5.6424c7.5957,0.0724 14.756,-0.2906 20.689,-1.8809zM228.0996,152.2591c1.7304,3.7617 8.2625,2.8015 10.3445,3.7617c0.7467,18.2364 2.4536,31.2225 3.7617,49.8417c-1.2545,1.5667 -5.3284,0.3141 -6.5829,1.8808c0,2.194 0,4.3889 0,6.5829c7.6258,-2.3501 16.0566,-2.4545 23.5103,-2.8212c1.0382,-7.6982 -3.489,-6.6365 -7.5233,-7.5233c-1.9269,-15.9409 -5.9349,-29.8016 -4.7021,-48.9013c3.9291,0.4805 6.3713,-0.5248 8.4637,-1.8809c-0.9808,-2.6641 -0.9808,-3.9186 0,-6.5828c-6.9073,-1.8583 -25.1033,-3.0178 -27.2719,5.6424z" fill="#000000" stroke-width="0.94041"/><path d="M254.64154,125.44895c1.60243,1.78003 -0.15471,3.45685 -0.15471,3.45685l-0.70476,0.60262c-2.86017,4.06907 -6.64184,6.14867 -10.82846,8.62173c-0.97636,0.57674 -1.71439,1.87804 -2.84823,1.8603c-1.90727,-0.02983 -4.44583,-0.31779 -5.3658,-1.98878c-0.84294,-1.53107 0.58245,-3.53846 1.50574,-5.02246c0.67051,-1.07769 4.70935,-2.83391 5.73685,-3.41715c3.16714,-1.79773 5.85919,-4.10718 9.13851,-5.71608c0,0 2.2486,-1.09262 3.34122,1.15598c0.07504,0.15444 0.13432,0.30342 0.17965,0.44698z" fill="#000000" stroke-width="0.5"/><path d="M237.76436,136.7447c-1.28742,-2.14303 0.85561,-3.43044 0.85561,-3.43044l1.70267,-0.96425c3.07871,-2.81838 5.78886,-4.46598 9.67904,-5.95621c0,0 2.3348,-0.89371 3.22851,1.44109c0.89371,2.3348 -1.44109,3.22851 -1.44109,3.22851c-3.34288,1.27856 -5.4447,2.54736 -8.08833,4.97283l-2.50598,1.56408c0,0 -2.14303,1.28742 -3.43044,-0.85561z" fill="#ff9400" stroke-width="0.5"/></g></g></svg>