<svg version="1.1" xmlns="http://www.w3.org/2000/svg" xmlns:xlink="http://www.w3.org/1999/xlink" width="69.2674" height="79.59958" viewBox="0,0,69.2674,79.59958"><g transform="translate(-200.6924,-139.001)"><g data-paper-data="{&quot;isPaintingLayer&quot;:true}" fill-rule="nonzero" stroke="none" stroke-linecap="butt" stroke-linejoin="miter" stroke-miterlimit="10" stroke-dasharray="" stroke-dashoffset="0" style="mix-blend-mode: normal"><path d="M219.6969,142.0783c18.7819,-2.4157 28.616,9.4392 42.0567,15.3866c15.9467,28.3083 -13.2899,47.4113 -40.0052,49.2371c-1.5561,-21.6222 -3.5614,-41.1499 -2.0515,-64.6237zM233.032,197.4701c11.4373,-4.5021 23.5558,-8.4288 24.6185,-20.5155c1.3674,-15.5435 -14.1485,-20.7442 -27.6959,-25.6443c-0.1661,14.3054 3.2517,27.9523 3.0774,46.1598z" fill="#ff9400" stroke-width="1.02578"/><path d="M229.9546,151.3103c13.5474,4.9001 29.0633,10.1008 27.6959,25.6443c-1.0627,12.0867 -13.1812,16.0134 -24.6185,20.5155c0.1743,-18.2075 -3.2435,-31.8544 -3.0774,-46.1598zM237.135,192.3412c22.4604,-4.8468 14.0049,-25.9695 -3.0773,-28.7216c1.1356,8.0246 -0.6452,20.7627 3.0773,28.7216z" fill="#000000" stroke-width="1.02578"/><path d="M217.6454,139.001c5.4704,0 10.9419,0 16.4123,0c0,0.3416 0,0.6842 0,1.0258c16.6063,4.2508 29.2243,12.4898 35.9021,26.6701c0,4.1031 0,8.2062 0,12.3093c-0.3416,0 -0.6842,0 -1.0258,0c-5.9064,24.6052 -29.5812,35.4815 -53.3402,38.9794c-0.6842,0 -1.4648,1.3837 -2.0515,0c-3.5502,-32.8463 -2.7214,-32.5078 -3.0774,-40.0052c-0.2154,-9.0248 0.1006,-18.9163 -1.0257,-27.6959c-0.0339,-1.5858 0,-2.0515 0,-3.0773c2.7244,-0.0103 5.8582,0.3877 7.1804,-1.0258c-0.9704,-2.6639 -1.8721,-6.0243 1.0258,-7.1804zM221.7484,206.702c26.7153,-1.8258 55.9519,-20.9288 40.0052,-49.2371c-13.4407,-5.9474 -23.2748,-17.8023 -42.0567,-15.3866c-1.5099,23.4738 0.4954,43.0015 2.0515,64.6237z" fill="#000000" stroke-width="1.02578"/><path d="M215.03137,176.24811c-2.33195,9.32779 -17.7414,2.58778 -13.6522,-5.07948c1.88577,-3.53582 7.11338,-4.85361 10.6441,-2.34499c0.92277,0.65564 3.9973,4.07702 3.0081,5.56082z" fill="#000000" stroke-width="0.5"/><path d="M242.01281,176.1536c-2.90835,3.39307 -8.23264,1.997 -10.49414,-1.4633c-0.49223,-0.75315 0.01412,-4.08494 0.59828,-4.58565c0.00031,-0.00186 0.00063,-0.00372 0.00094,-0.00558c-0.04486,-0.58318 0.19062,-1.09602 0.58843,-1.54276c0.75177,-1.19715 2.08385,-1.99294 3.6018,-1.99294c4.26467,-1.42208 7.75104,7.20281 5.70469,9.59022z" fill="#000000" stroke-width="0.5"/><path d="M221.79956,175.0262c-4.00487,2.25278 -17.57384,3.82861 -17.57384,-2.23655c0,-1.42769 1.11547,-2.70922 2.125,-3.71875c0.34051,-0.34051 10.52108,-1.71269 12.24388,-1.87502c0.336,-0.08801 0.68824,-0.13593 1.05128,-0.13833c0.00955,-0.00006 0.01911,-0.00009 0.02868,-0.00009c2.34721,0 4.25,1.90279 4.25,4.25c0,1.38307 -0.66066,2.61184 -1.68361,3.38794c-0.13084,0.12667 -0.27673,0.23819 -0.44139,0.33081z" fill="#ff9400" stroke-width="0.5"/><path d="M237.29626,167.22214c2.34721,0 4.25,1.90279 4.25,4.25c0,2.34721 -1.90279,4.25 -4.25,4.25c-0.10218,0 -0.20352,-0.00361 -0.3039,-0.0107c-1.87737,0.6822 -4.61613,-0.166 -6.44834,-0.31868c-0.83874,-0.0699 -2.99972,0.24364 -3.47453,-0.58728l-2.09298,-3.66272c0.6146,-1.07555 0.82567,-2.55737 1.68361,-3.38794c0.13084,-0.12667 0.27673,-0.23819 0.44139,-0.33081c1.83227,-1.03067 5.56161,-0.94469 8.37433,0.20664c0.55179,-0.26195 1.16899,-0.40851 1.82042,-0.40851z" fill="#ff9400" stroke-width="0.5"/></g></g></svg>