<svg version="1.1" xmlns="http://www.w3.org/2000/svg" xmlns:xlink="http://www.w3.org/1999/xlink" width="67.12936" height="99.55929" viewBox="0,0,67.12936,99.55929"><g transform="translate(-208.25614,-120.44412)"><g data-paper-data="{&quot;isPaintingLayer&quot;:true}" fill-rule="nonzero" stroke="none" stroke-linecap="butt" stroke-linejoin="miter" stroke-miterlimit="10" stroke-dasharray="" stroke-dashoffset="0" style="mix-blend-mode: normal"><path d="M236.5654,141.1724c2.8731,-0.5498 5.9611,-0.5104 8.8678,0l13.3018,3.6949c4.49,1.275 12.1095,15.6922 14.7797,24.8793c2.2603,8.2845 2.8919,18.2943 -0.4927,25.6182c-8.5555,11.5006 -15.1137,24.956 -35.4713,24.6329c-2.2988,0 -4.5985,0 -6.8972,0c-10.5587,-3.893 -13.4861,-15.4163 -21.677,-21.677c0,-3.6131 0,-7.2273 0,-10.8385c0,-12.3351 -1.6208,-12.9372 0,-15.765c5.1778,-13.8979 17.1918,-21.5814 27.5889,-30.5448zM215.8737,190.4382c7.7308,8.8245 10.4927,19.0619 21.677,20.6916c13.4387,1.9578 27.8302,-7.4578 31.5301,-15.765c10.0482,-22.5598 -7.1042,-56.4005 -28.5742,-51.2364c-17.3386,7.3051 -24.0131,24.7353 -24.6329,46.3098z" fill="#000000" stroke-width="0.98532"/><path d="M240.5066,144.1284c21.47,-5.1641 38.6224,28.6766 28.5742,51.2364c-3.6999,8.3072 -18.0914,17.7228 -31.5301,15.765c-11.1843,-1.6297 -13.9462,-11.8671 -21.677,-20.6916c0.6198,-21.5745 7.2943,-39.0047 24.6329,-46.3098zM225.7269,185.5116c1.3548,7.2243 9.5093,18.0934 17.7357,18.721c21.2562,1.6218 22.3154,-24.9521 17.7356,-42.3686c-18.4618,-21.8582 -39.7584,0.7981 -35.4713,23.6476z" fill="#ff9400" stroke-width="0.98532"/><path d="M261.1982,161.864c4.5798,17.4165 3.5206,43.9904 -17.7356,42.3686c-8.2264,-0.6276 -16.3809,-11.4967 -17.7357,-18.721c-4.2871,-22.8495 17.0095,-45.5058 35.4713,-23.6476zM230.6535,190.4382c1.7292,3.3698 9.4807,9.9379 12.8091,9.8531c5.4626,-0.1399 11.5912,-9.8304 11.8238,-18.721c0.3813,-14.5521 -5.5947,-24.7353 -20.6917,-21.6769c-3.2259,6.4932 -9.1348,20.4276 -3.9412,30.5448z" fill="#000000" stroke-width="0.98532"/><path d="M233.14477,125.53907c0.72306,-1.26536 0.97138,-3.00867 1.98072,-3.98581c0.15393,-0.14902 0.32556,-0.28022 0.51928,-0.38919c5.98818,-3.36842 14.75569,5.99485 18.26177,9.2771c2.2606,2.11628 5.21623,-0.43913 5.21623,5.47536c0,1.67964 -1.31232,3.18732 -2.5,4.375c-3.83563,3.83563 -10.25275,-3.44113 -12.347,-5.33899c-0.47573,-0.43112 -3.31751,-2.47129 -3.58104,-2.67545c-0.77789,-0.60263 -4.9872,-2.25319 -5.08763,-2.42895z" fill="#000000" stroke-width="0.5"/><path d="M235.64477,124.38602c0.71016,-0.76081 1.12743,-2.16123 2.05193,-2.45996c0.09689,-0.03131 0.19936,-0.05052 0.30832,-0.05562c0.15373,-0.0072 0.31805,0.00687 0.49178,0.04017c0.28045,0.03952 0.54595,0.12558 0.78845,0.25011c3.18879,1.34508 8.39144,6.93254 10.71789,8.24202c1.51615,0.85339 6.12547,3.11064 6.12547,4.8549c0,2.59972 -2.75648,2.88325 -4.40889,2.1875c-4.37727,-1.84306 -8.69765,-5.83479 -12.22343,-8.89268c-0.56986,-0.49424 -3.41278,-2.13797 -3.44995,-2.80701z" fill="#ff9400" stroke-width="0.5"/></g></g></svg>