<svg version="1.1" xmlns="http://www.w3.org/2000/svg" xmlns:xlink="http://www.w3.org/1999/xlink" width="67.12936" height="97.58975" viewBox="0,0,67.12936,97.58975"><g transform="translate(-218.0719,-126.37779)"><g data-paper-data="{&quot;isPaintingLayer&quot;:true}" fill-rule="nonzero" stroke="none" stroke-linecap="butt" stroke-linejoin="miter" stroke-miterlimit="10" stroke-dasharray="" stroke-dashoffset="0" style="mix-blend-mode: normal"><path d="M246.38116,145.13653c2.8731,-0.5498 5.9611,-0.5104 8.8678,0l13.3018,3.6949c4.49,1.275 12.1095,15.6922 14.7797,24.8793c2.2603,8.2845 2.8919,18.2943 -0.4927,25.6182c-8.5555,11.5006 -15.1137,24.956 -35.4713,24.6329c-2.2988,0 -4.5985,0 -6.8972,0c-10.5587,-3.893 -13.4861,-15.4163 -21.677,-21.677c0,-3.6131 0,-7.2273 0,-10.8385c0,-12.3351 -1.6208,-12.9372 0,-15.765c5.1778,-13.8979 17.1918,-21.5814 27.5889,-30.5448zM225.68946,194.40233c7.7308,8.8245 10.4927,19.0619 21.677,20.6916c13.4387,1.9578 27.8302,-7.4578 31.5301,-15.765c10.0482,-22.5598 -7.1042,-56.4005 -28.5742,-51.2364c-17.3386,7.3051 -24.0131,24.7353 -24.6329,46.3098z" fill="#000000" stroke-width="0.98532"/><path d="M250.32236,148.09253c21.47,-5.1641 38.6224,28.6766 28.5742,51.2364c-3.6999,8.3072 -18.0914,17.7228 -31.5301,15.765c-11.1843,-1.6297 -13.9462,-11.8671 -21.677,-20.6916c0.6198,-21.5745 7.2943,-39.0047 24.6329,-46.3098zM235.54266,189.47573c1.3548,7.2243 9.5093,18.0934 17.7357,18.721c21.2562,1.6218 22.3154,-24.9521 17.7356,-42.3686c-18.4618,-21.8582 -39.7584,0.7981 -35.4713,23.6476z" fill="#ff9400" stroke-width="0.98532"/><path d="M271.01396,165.82813c4.5798,17.4165 3.5206,43.9904 -17.7356,42.3686c-8.2264,-0.6276 -16.3809,-11.4967 -17.7357,-18.721c-4.2871,-22.8495 17.0095,-45.5058 35.4713,-23.6476zM240.46926,194.40233c1.7292,3.3698 9.4807,9.9379 12.8091,9.8531c5.4626,-0.1399 11.5912,-9.8304 11.8238,-18.721c0.3813,-14.5521 -5.5947,-24.7353 -20.6917,-21.6769c-3.2259,6.4932 -9.1348,20.4276 -3.9412,30.5448z" fill="#000000" stroke-width="0.98532"/><path d="M243.49902,128.62059c2.66662,1.02562 6.30226,2.55195 7.34345,5.51255c2.6096,7.42032 -5.96195,11.08568 -11.78659,7.28842c-2.6511,-1.72833 -5.28652,-4.61058 -4.17538,-7.94402c0.80811,-2.42433 5.76604,-6.315 8.46441,-4.87588z" fill="#000000" stroke-width="0.5"/><path d="M282.76457,131.74131c4.48029,10.04203 -3.85301,11.55255 -11.60235,10.8477c-3.17147,-0.28847 -8.71499,-0.8055 -10.18613,-4.1891c-1.39691,-3.21288 1.08374,-4.62493 2.118,-7.09364c0.5025,-1.19941 1.08246,-3.41954 2.49944,-4.10343c4.52944,-2.18609 14.49087,0.19691 17.07516,4.50408z" fill="#000000" stroke-width="0.5"/><path d="M239.33474,137.06899c-6.97146,-6.97146 9.64004,-9.51177 8.3308,-0.12895c-0.51126,3.66404 -7.22183,3.77724 -8.09915,0.26794z" fill="#ff9400" stroke-width="0.5"/><path d="M268.29658,131.65273c1.67166,-4.68065 13.0179,-1.64317 9.60877,4.03871c0.01689,0.11733 0.02563,0.23731 0.02563,0.35932c0,1.24991 -0.91728,2.28559 -2.11539,2.4706c-3.5061,1.66244 -9.32533,-1.81092 -7.51901,-6.86862z" fill="#ff9400" stroke-width="0.5"/><path d="M274.43003,132.60292c0,-1.38071 1.11929,-2.5 2.5,-2.5c0.46324,0 0.89706,0.126 1.26905,0.34559l0.08011,-0.04577c1.11819,0.63897 1.7831,0.74462 2.1468,1.21815c0.12631,0.16445 0.2163,0.37328 0.27632,0.66423c0.0502,0.19754 0.07687,0.40447 0.07687,0.61762c0.13527,2.05527 0.37799,4.98834 -1.69972,6.23496c-1.78689,1.07214 -5.99859,-0.06532 -5.99859,-2.33741c0,-0.83982 0.65616,-1.59366 1.25,-2.1875c0.20668,-0.20668 0.65168,-0.10691 0.99492,-0.09239c-0.54756,-0.4586 -0.89576,-1.14737 -0.89576,-1.91748zM280.77919,132.90273z" fill="#ff9400" stroke-width="0.5"/></g></g></svg>