<svg version="1.1" xmlns="http://www.w3.org/2000/svg" xmlns:xlink="http://www.w3.org/1999/xlink" width="58.02132" height="95.39311" viewBox="0,0,58.02132,95.39311"><g transform="translate(-212.829,-123.62745)"><g data-paper-data="{&quot;isPaintingLayer&quot;:true}" fill-rule="nonzero" stroke="none" stroke-linecap="butt" stroke-linejoin="miter" stroke-miterlimit="10" stroke-dasharray="" stroke-dashoffset="0" style="mix-blend-mode: normal"><path d="M234.1563,146.2908c3.0197,16.3512 -3.7265,64.9511 21.3272,47.5015c0.507,-18.955 -2.1376,-31.5574 -0.9694,-47.5015c4.1219,-2.4739 7.6923,1.3436 9.6942,0c2.9024,23.617 6.3254,58.0556 -14.5413,63.9817c-12.2874,-0.6379 -16.7206,-9.131 -23.2661,-15.5107c-0.7106,-13.4236 -4.3236,-31.5207 -1.9388,-49.4404c4.2344,-0.6796 5.4597,1.649 9.6942,0.9694z" fill="#ff9400" stroke-width="0.96942"/><path d="M258.2948,141.2014c3.5888,-0.38 9.8328,-3.1691 10.7605,0.2423c3.3959,13.1221 1.1372,27.2048 0,40.7156c-0.5826,6.9188 -2.1278,14.1254 -5.3318,20.3578c-3.0866,6.0007 -6.6618,12.7944 -12.7963,15.4138c-5.6275,2.4012 -12.9078,0.4634 -18.5644,-2.2297c-6.2963,-3.0294 -13.0309,-7.5333 -15.6561,-14.1535c-4.4254,-11.1687 -0.4498,-20.9879 -3.8777,-35.8685c0,-5.4937 0,-10.9864 0,-16.4801c2.2617,0 4.5243,0 6.786,0c2.1831,-0.9675 -2.0959,-5.2853 0.9694,-6.786c5.5063,0.6331 13.8772,-2.0154 17.4495,0.9695c2.855,14.6052 2.3392,45.3135 7.7554,49.4403c1.4628,-5.8184 -0.4333,-31.2744 -1.9388,-44.5932c1.7963,-0.9239 4.5242,0 6.7859,0c0.5303,-1.4086 -0.2618,-3.7575 0.9694,-4.8471c1.7643,-1.5618 4.3886,-1.9069 6.689,-2.1812zM224.4621,145.3214c-2.3848,17.9197 1.2282,36.0168 1.9388,49.4404c6.5455,6.3797 10.9787,14.8728 23.2661,15.5107c20.8667,-5.9261 17.4437,-40.3647 14.5413,-63.9817c-2.0019,1.3436 -5.5723,-2.4739 -9.6942,0c-1.1682,15.9441 1.4764,28.5465 0.9694,47.5015c-25.0537,17.4496 -18.3075,-31.1503 -21.3272,-47.5015c-4.2345,0.6796 -5.4598,-1.649 -9.6942,-0.9694z" fill="#000000" stroke-width="0.96942"/><path d="M243.81653,129.94499c2.73131,1.55717 6.75439,3.37435 5.34522,7.28544c-1.97811,5.49013 -12.13796,-3.05136 -14.75428,-4.1147c-1.66311,-0.67593 -3.28483,-1.23126 -4.85527,-2.07719c-0.98097,-0.52841 -5.65532,-2.22651 -5.62863,-3.48101c-0.19351,-0.35499 -0.30348,-0.76208 -0.30348,-1.19485c0,-1.38071 1.11929,-2.5 2.5,-2.5c0.1985,0 0.39159,0.02313 0.57673,0.06685c5.1063,-1.61373 12.97369,3.65173 17.1197,6.01546z" fill="#000000" stroke-width="0.5"/><path d="M241.02997,130.65356c1.42419,0.52259 4.39173,2.11195 4.39173,3.61575c0,2.71026 -2.56823,2.69237 -4.25939,2.26063c-2.58631,-0.66026 -6.8347,-4.15994 -9.02657,-5.61907c-0.37073,-0.24679 -2.22488,-1.19577 -3.23544,-1.76575c-0.18669,-0.08239 -0.36139,-0.18695 -0.52077,-0.31035c-0.5906,-0.45727 -0.97083,-1.1732 -0.97083,-1.97794c0,-1.38071 1.11929,-2.5 2.5,-2.5c0.47761,0 0.92394,0.13393 1.30347,0.36628c3.17202,0.33645 6.51997,4.72035 9.8178,5.93044z" fill="#ff9400" stroke-width="0.5"/></g></g></svg>