<svg version="1.1" xmlns="http://www.w3.org/2000/svg" xmlns:xlink="http://www.w3.org/1999/xlink" width="62.02091" height="94.59352" viewBox="0,0,62.02091,94.59352"><g transform="translate(-214.88389,-132.22588)"><g data-paper-data="{&quot;isPaintingLayer&quot;:true}" fill-rule="nonzero" stroke="none" stroke-linecap="butt" stroke-linejoin="miter" stroke-miterlimit="10" stroke-dasharray="" stroke-dashoffset="0" style="mix-blend-mode: normal"><path d="M261.1035,150.3079c4.5166,0.7502 6.4569,4.0768 11.643,4.1583c-6.9975,8.8038 -9.3668,22.2357 -16.6329,30.7709c-0.2528,12.1129 2.1132,15.2565 3.3266,27.4443c-2.7919,1.9203 -6.3721,3.053 -11.6431,2.4949c-1.6142,-8.8611 1.2425,-18.564 -0.8316,-25.781c-1.1203,-3.8954 -6.6108,-5.2327 -9.1481,-8.3165c-9.5141,-14.1338 -13.6074,-16.3027 -15.8013,-22.4544c0.1389,-2.5557 3.8081,-4.7179 6.6532,-4.9899c8.1193,5.3907 11.7411,15.4262 19.1278,21.6228c5.212,-7.5405 9.1165,-16.3876 13.3064,-24.9494z" fill="#ff9400" stroke-width="0.83165"/><path d="M253.6186,226.8194c-3.8812,0 -7.7617,0 -11.643,0c-3.7624,-12.33 0.1139,-22.768 -3.3266,-34.0975c-13.5059,-14.0024 -17.4587,-17.2101 -23.2861,-22.4545c-1.0229,-1.304 -0.1056,-1.1418 0,-1.6633c2.0625,-1.2749 3.1528,-3.5004 5.8215,-4.1582c0.5747,-3.3465 -3.502,-2.0425 -3.3266,-4.9899c3.1171,-4.6447 7.9797,-7.5438 11.6431,-11.643c0.8316,0 1.8454,-0.662 2.4949,0c2.5274,2.7627 4.1192,6.2274 6.3621,9.2313c2.4675,3.369 4.6464,11.2239 7.7759,9.8966c4.4901,-2.0509 4.214,-11.8643 7.4848,-16.633c3.7208,0.1189 4.619,1.4853 4.9899,-2.4949c1.9403,0 3.8813,0 5.8216,0c0,0.2769 0,0.5547 0,0.8316c4.9166,1.1818 8.758,3.4389 12.4747,5.8216c0,0.5547 0,1.1085 0,1.6632c-9.8526,6.5035 -9.7785,22.9327 -18.2963,30.771c1.4113,9.4001 2.747,18.8758 4.1583,28.2759c-4.2423,1.0912 -3.325,5.6311 -2.495,9.9798c-1.5577,1.2142 -5.5113,0.0324 -6.6532,1.6633zM247.7971,175.2573c-7.3867,-6.1966 -12.7716,-17.5469 -19.1278,-21.6228c-2.8301,1.0504 -6.0062,2.47 -6.6532,4.9899c8.3921,11.757 11.0775,16.6537 15.8013,22.4544c2.5556,3.122 8.0187,4.4069 9.1481,8.3165c2.1589,7.474 -0.7826,16.9199 0.8316,25.781c5.271,0.5581 8.8512,-0.5746 11.6431,-2.4949c-1.2134,-12.1878 -3.5794,-15.3314 -3.3266,-27.4443c7.2661,-8.5352 9.6354,-21.9671 16.6329,-30.7709c-5.1861,-0.0815 -7.1264,-3.4081 -11.643,-4.1583c-4.1899,8.5618 -8.0944,17.4089 -13.3064,24.9494z" fill="#000000" stroke-width="0.83165"/><path d="M238.75949,133.98404c0.70692,0.57543 0.91321,2.25212 1.50823,2.58734c3.06112,1.72458 8.02218,6.60991 6.32397,10.64317c-2.72717,6.47704 -8.22736,-3.09154 -10.16179,-4.37098c-0.58424,-0.38642 -7.80839,-4.25246 -7.2948,-6.13562c-0.0517,-0.20027 -0.0792,-0.41027 -0.0792,-0.6267c0,-1.1493 0.77554,-2.11746 1.83183,-2.40971c2.10637,-1.88733 4.94368,-2.07095 7.87175,0.3125z" fill="#000000" stroke-width="0.5"/><path d="M232.8445,135.75181c0.97348,-1.0429 2.28685,-2.58967 3.66302,-2.21358c1.92493,0.52606 2.06245,3.49841 3.80102,4.25292c1.80163,0.78188 7.41884,3.2434 5.71877,6.30352c-0.40785,0.73413 -0.95243,1.57214 -1.75993,1.80286c-0.80751,0.23072 -1.7126,-0.1931 -2.44674,-0.60095c-0.71686,-0.39826 -0.52764,-1.0123 -0.77224,-1.56531c-0.49554,-1.1204 -7.64233,-3.7398 -7.80234,-6.62002z" fill="#ff9400" stroke-width="0.5"/></g></g></svg>