<svg version="1.1" xmlns="http://www.w3.org/2000/svg" xmlns:xlink="http://www.w3.org/1999/xlink" width="47.33404" height="102.67417" viewBox="0,0,47.33404,102.67417"><g transform="translate(-216.32347,-126.38502)"><g data-paper-data="{&quot;isPaintingLayer&quot;:true}" fill-rule="nonzero" stroke="none" stroke-linecap="butt" stroke-linejoin="miter" stroke-miterlimit="10" stroke-dasharray="" stroke-dashoffset="0" style="mix-blend-mode: normal"><path d="M227.92942,162.28941c6.6942,-1.5544 11.5482,-1.3644 14.7116,-0.6305c9.3649,2.6918 19.1578,5.5013 21.0165,15.9726c0,2.242 0,4.4832 0,6.7253c-5.4492,9.4019 -10.135,19.5689 -22.6979,21.8572c1.58577,5.72928 2.02051,12.60918 3.05332,18.89082c-0.99152,-0.02607 -1.97559,-0.08058 -2.9493,-0.17173c-1.44212,-9.48432 -2.7374,-18.77275 -2.62592,-27.96638c10.5065,-0.1967 18.5349,-3.5232 21.0165,-10.0879c6.2486,-16.5274 -13.3817,-25.7907 -29.4232,-21.0166c-0.49618,20.4743 0.28434,39.97566 4.26461,58.0977c-2.3702,-0.20983 -4.80972,-0.15031 -7.00297,0.28834c-0.70585,0.14117 -1.41631,0.22222 -2.12996,0.25872c-1.78814,-15.29666 -2.79829,-31.37111 -5.21957,-46.03486c0,-2.5219 0,-5.0439 0,-7.5659c3.4619,0.6599 5.3567,0.2858 7.566,-0.8407c1.6367,-1.7225 -1.4998,-6.0216 0.4203,-7.7761z" fill="#000000" stroke-width="0.84066"/><path d="M238.43772,196.96671c-0.11148,9.19363 1.1838,18.48206 2.62592,27.96638c-1.14875,-0.10754 -2.2831,-0.26609 -3.39832,-0.48913c-1.08273,-0.21655 -2.21803,-0.38209 -3.36969,-0.48405c-3.98027,-18.12204 -4.76079,-37.6234 -4.26461,-58.0977c16.0415,-4.7741 35.6718,4.4892 29.4232,21.0166c-2.4816,6.5647 -10.51,9.8912 -21.0165,10.0879zM238.43772,190.24141c3.429,0.9205 10.5141,-1.0601 14.2912,-2.522c6.3562,-10.2283 -1.5241,-19.194 -15.1319,-16.8132c0.4909,6.6555 0.8978,14.4888 0.8407,19.3352z" fill="#ff9400" stroke-width="0.84066"/><path d="M237.59702,170.90621c13.6078,-2.3808 21.4881,6.5849 15.1319,16.8132c-3.7771,1.4619 -10.8622,3.4425 -14.2912,2.522c0.0571,-4.8464 -0.3498,-12.6797 -0.8407,-19.3352zM240.95962,186.87881c1.7234,1.1096 6.4378,-0.4069 8.4066,-1.6814c-0.2219,-4.5614 -5.318,-8.6672 -9.2472,-6.7253c1.9167,1.166 0.3135,5.8511 0.8406,8.4067z" fill="#000000" stroke-width="0.84066"/><path d="M235.02322,126.86708c2.68768,0.32954 5.01223,2.83154 4.98253,5.42099c-0.01009,0.87967 -0.29188,1.76944 -0.92343,2.58756c0.42878,6.35304 -0.22197,13.26029 -0.38194,19.0191c-0.04653,1.67506 0.46472,8.14005 -0.69092,8.80041l-4.30908,2.46233c-0.2356,-0.13463 -0.48778,-0.2528 -0.74849,-0.36249c-1.45388,0.77637 -3.21847,1.09666 -4.6375,1.96334c-0.24573,0.15008 0.40813,2.17726 0.50337,2.59554c0.49295,2.16494 1.77346,9.46273 0.18902,10.36813l-4.30908,2.46233c-1.26536,-0.72306 -3.00867,-0.97138 -3.98581,-1.98072c-0.14902,-0.15393 -0.28022,-0.32556 -0.38919,-0.51928c-1.03376,-1.83777 -0.53695,-4.13619 -0.81489,-6.13594c-1.19269,-8.58128 -1.94197,-15.95478 -2.15863,-24.90943c-0.08523,-3.52262 -0.58656,-6.79166 -0.58713,-10.39411c-0.00011,-0.69503 -0.08577,-1.72128 -0.17965,-2.92625l-0.25891,-0.32012c0.0642,-0.17145 0.12975,-0.33761 0.19664,-0.49864c-0.06494,-0.88396 -0.12568,-1.8376 -0.1565,-2.81023c0.64657,-0.02391 1.29295,-0.04862 1.93934,-0.07346c0.73206,-0.76971 1.55463,-1.2663 2.46299,-1.58694c0.31427,-0.11094 0.63882,-0.20081 0.97343,-0.27365c1.76239,-4.0699 6.8623,-4.13818 9.39333,-1.88239c0.84627,-0.30294 1.68995,-0.60981 2.56907,-0.82959z" fill="#000000" stroke-width="0.5"/><path d="M233.30896,170.83308c-1.26536,-0.72306 -3.00867,-0.97138 -3.98581,-1.98072c-0.14902,-0.15393 -0.28022,-0.32556 -0.38919,-0.51928c-1.21511,-2.16015 -0.50478,-4.88031 -0.82071,-7.19706c-1.26273,-9.25967 -0.81041,-18.96187 -0.97855,-28.37806c-0.00792,-0.44362 -0.04746,-0.9237 -0.09696,-1.42394c1.21331,-0.02328 2.42935,-0.03651 3.64927,-0.03532c2.12568,0.00206 4.1982,0.1156 6.25099,0.27475c0.00033,0.00342 0.00066,0.00684 0.00099,0.01026c0.81764,8.44876 0.41776,17.30871 0.58713,25.83382c0.04709,2.37035 2.24797,9.7212 0.09192,10.95323z" fill="#ff9400" stroke-width="0.5"/><path d="M223.95619,222.87257c0.72306,-1.26536 0.97138,-3.00867 1.98072,-3.98581c0.15393,-0.14902 0.32556,-0.28022 0.51928,-0.38919c2.91611,-1.64034 8.38582,0.20295 11.50269,0.54926c1.16483,0.12943 2.43361,-0.41994 3.47855,0.625c1.18768,1.18768 2.5,2.69536 2.5,4.375c0,7.35223 -8.64522,4.54036 -12.4654,4.21716c-0.89391,-0.07563 -4.70176,-0.46678 -5.05351,-1.08234z" fill="#000000" stroke-width="0.5"/></g></g></svg>